<svg xmlns="http://www.w3.org/2000/svg" width="1024" height="1024"><path fill="#faada5" d="m432.057 235.699 2.155-.024c2.383-.025 4.765-.035 7.148-.045q2.563-.021 5.125-.045a4109 4109 0 0 1 16.835-.097l5.802-.028c8.047-.039 16.093-.072 24.14-.09 11.52-.027 23.04-.085 34.56-.186 8.106-.07 16.212-.104 24.319-.112 4.839-.006 9.676-.027 14.515-.085a825 825 0 0 1 13.666-.042q2.5.002 5-.045c8.008-.142 14.2-.176 20.53 5.426A109 109 0 0 1 610 245l1.913 2.099c1.565 1.717 3.05 3.48 4.525 5.276 3.45 4.243 3.45 4.243 7.222 8.19C625 262 625 262 625 264h2c1.33 1.491 2.587 3.047 3.813 4.625 4.28 5.369 8.828 10.385 13.58 15.338 8.933 9.419 8.933 9.419 10.236 14.478l-.066 2.122.003 2.128c-1.509 6.152-6.472 10.44-10.878 14.684-4.215 4.13-8.26 8.3-12.083 12.8-2.412 2.742-5.032 5.26-7.632 7.821-2.546 2.586-4.893 5.32-7.258 8.07-2.215 2.498-4.584 4.814-6.965 7.153-1.832 1.865-3.544 3.8-5.25 5.781-2.781 3.228-5.708 6.23-8.746 9.215-2.47 2.514-4.744 5.183-7.043 7.851-2.453 2.772-5.062 5.35-7.711 7.934l2 1 1-2c1.723-.527 1.723-.527 4.063-.937l2.722-.493L594 381l3.871-.758c40.502-7.899 79.498-2.64 113.961 20.555C732.572 415.22 747.809 433.912 758 457l1.457 3.293c15.742 38.286 11.084 82.149-4.356 119.698C743.182 607.913 724.388 632.734 704 655l-2.625 2.906c-7.972 8.806-16.111 17.444-25.16 25.16-2.328 2.033-4.586 4.127-6.844 6.237-6.255 5.84-12.69 11.345-19.371 16.697q-1.894 1.545-3.785 3.094c-7.66 6.269-15.38 12.432-23.264 18.42a2230 2230 0 0 0-6.935 5.31c-9.284 7.116-18.6 14.147-28.17 20.873a1001 1001 0 0 0-5.433 3.867c-10.837 7.736-21.876 15.141-33 22.457q-4.41 2.903-8.811 5.817l-5.696 3.752-2.614 1.73c-16.259 10.667-16.259 10.667-22.874 10.211-11.41-2.506-21.825-11.145-31.418-17.531l-3.086-2.031c-2.983-1.972-5.95-3.966-8.914-5.969l-2.068-1.397c-18.308-12.386-36.092-25.365-53.62-38.83q-2.959-2.269-5.933-4.52c-17.939-13.638-35.196-28.24-51.649-43.636q-2.81-2.624-5.632-5.238l-3.973-3.691-1.838-1.705c-6.061-5.65-11.883-11.42-17.287-17.706-1.91-2.175-3.874-4.292-5.853-6.405-39.192-42-63.791-92.327-62.3-150.392.322-7.334 1.388-14.361 3.153-21.48l.52-2.131c5.163-20.5 14.547-38.226 27.48-54.869l1.64-2.344L290 420h2l.672-1.68c8.182-14.295 28.723-25.07 43.328-31.32q2.499-.51 5-1l1-2a99 99 0 0 1 7.438-1.937l2.302-.521c29.92-6.612 56.337-5.568 86.26 1.458a142 142 0 0 0-12.625-15.187l-3.715-3.938-1.863-1.969a1001 1001 0 0 1-7.984-8.593l-1.479-1.604c-22.9-24.854-22.9-24.854-30.861-34.057-1.245-1.396-2.57-2.721-3.91-4.027C374 312 374 312 374 310h-2c-2.632-5.159-3.584-8.191-2-14 2.767-4.521 5.977-8.51 9.438-12.5l1.571-1.825c4.325-4.989 8.81-9.816 13.335-14.623a186 186 0 0 0 9.406-10.864c4.084-5.1 8.555-9.655 13.25-14.188l2.012-2.129c4.121-3.879 7.441-4.129 13.045-4.172m-.994 35.926-2.06 2.168a410 410 0 0 0-7.194 8.11 591 591 0 0 1-6.246 7.097l-2.06 2.313L412 293l1 2 49-1 8-16 4-8v-3c-8.557-.593-17.108-1.106-25.687-1.187l-3.825-.043c-5.73.378-9.474 1.66-13.425 5.855M509 266q-3.033 5.49-6.036 10.999a923 923 0 0 1-2.058 3.742 893 893 0 0 0-2.941 5.376l-1.793 3.27L495 292l1 2h30c-1.381-4.144-2.666-7.572-4.602-11.398l-1.484-2.95-1.539-3.027-1.562-3.098A2967 2967 0 0 0 513 266zm38 1c3.159 9.476 8.365 18.152 13 27l52 1c-5.05-6.741-5.05-6.741-10.5-13-3.395-3.699-6.448-7.478-9.309-11.602L591 269h-2v-2zm-118 58c4.54 5.334 4.54 5.334 9.227 10.508l1.668 1.78 1.73 1.837a1352 1352 0 0 1 12.032 12.958C459.913 358.92 466.395 365.5 473 372c1.107-3.322.943-3.898-.156-7.057l-.84-2.457-.934-2.642-.938-2.724c-.994-2.876-2-5.748-3.007-8.62l-2.012-5.809a3867 3867 0 0 0-4.455-12.794A419 419 0 0 1 459 325zm61 0 5.438 16.25A3487 3487 0 0 1 511 389h2q3.891-11.407 7.771-22.819 1.802-5.3 3.609-10.596 1.744-5.115 3.481-10.232.663-1.95 1.33-3.898.932-2.735 1.86-5.471l1.07-3.143c1.033-3.167 1.033-3.167 1.879-7.841zm75 0a33788 33788 0 0 0-5.927 17.725q-1.006 3.015-2.016 6.029-1.45 4.333-2.897 8.668l-.912 2.721-.85 2.547-.746 2.234A89 89 0 0 0 550 371l2-1v-2l3-1v-2h2c1.569-1.55 1.569-1.55 3.188-3.562 2.345-2.763 4.72-5.405 7.312-7.938 2.915-2.87 5.595-5.872 8.258-8.977a270 270 0 0 1 5.797-6.296 932 932 0 0 1 5.823-6.123l1.806-1.909 1.642-1.718c1.381-1.423 1.381-1.423 1.174-3.477zM317.422 443.766C298.662 466.1 290.019 493.966 292 523c1.7 18.904 6.22 36.173 15 53l1.048 2.013c4.899 9.29 10.359 17.78 16.952 25.987l2.25 2.832c5.039 6.255 10.33 12.244 15.75 18.168l2.45 2.73c5.429 6.014 11.02 11.842 16.738 17.583l1.978 1.992a226 226 0 0 0 11.934 11.04c2.803 2.441 5.502 4.988 8.213 7.53a270 270 0 0 0 14.886 12.855c3.083 2.498 6.098 5.067 9.114 7.645 6.232 5.308 12.637 10.375 19.105 15.391a487 487 0 0 1 4.395 3.48l2.437 1.942 2.078 1.667c1.61 1.333 1.61 1.333 3.672 1.145v2a104 104 0 0 0 5.875 4.313q1.956 1.365 3.91 2.734l2.098 1.463c2.782 1.958 5.526 3.968 8.271 5.976 11.085 8.095 22.412 15.837 33.822 23.466a298 298 0 0 1 6.275 4.374l3.194 2.248 2.868 2.061c2.579 1.596 2.579 1.596 5.326 1.198 3.54-1.249 6.515-3.258 9.611-5.333l2.196-1.448A1272 1272 0 0 0 531 748l2.947-1.976c12.77-8.575 25.426-17.284 37.824-26.39 2.42-1.774 4.848-3.538 7.276-5.302q2.54-1.852 5.078-3.707l2.333-1.694c4.44-3.26 8.648-6.674 12.744-10.358 3.114-2.724 6.473-5.116 9.798-7.573a359 359 0 0 0 22.593-18.303 210 210 0 0 1 13.65-11.013c1.963-1.88 2.396-3.026 2.757-5.684l1.7-.207c3.209-1.106 4.785-3.029 7.113-5.48 2.864-2.962 5.683-5.831 8.875-8.438 3.174-2.642 5.77-5.606 8.437-8.75 1.99-2.256 4.093-4.34 6.25-6.437 4.965-4.907 9.28-10.235 13.625-15.688l1.957-2.324C706.237 596.343 714.309 582.552 721 568l1.46-3.14c11.04-25.024 13.877-55.663 5.54-81.86l-.65-2.09c-4.364-13.668-11.333-26.494-21.35-36.91h-2l-1-3c-24.082-22.907-52.312-28.817-84.544-28.132-33.62 1.283-60.027 16.887-82.864 40.492-2.173 2.238-4.386 4.434-6.592 6.64l-2.246 2.352c-8.736 9.062-8.736 9.062-15.754 10.086-6.297-.919-10.565-5.745-14.816-10.165l-3.319-3.378a2180 2180 0 0 1-5.105-5.252c-24.814-25.55-54.323-40.367-90.404-40.935-31.177-.174-58.136 7.674-79.934 31.058"/><path fill="#fba38f" d="m435.665 235.82 2.1-.023q3.5-.032 7-.053l5.007-.045a8864 8864 0 0 1 45.761-.247 5691 5691 0 0 0 33.819-.215c7.928-.073 15.856-.111 23.784-.124 4.734-.01 9.466-.033 14.2-.095a785 785 0 0 1 13.375-.054q2.446-.001 4.893-.05c7.929-.153 13.962-.135 20.228 5.411A111 111 0 0 1 610 245l1.915 2.099c1.564 1.718 3.049 3.48 4.523 5.276 3.45 4.243 3.45 4.243 7.222 8.19C625 262 625 262 625 264h2c1.33 1.491 2.587 3.047 3.813 4.625 4.28 5.369 8.828 10.385 13.58 15.338 8.933 9.419 8.933 9.419 10.236 14.478-.164 5.24-.985 8.51-4.629 12.559-2.14.656-2.14.656-4 1l1.094-1.54c2.17-3.218 3.774-5.728 4.469-9.585-1.187-6.066-6.034-10.801-10-15.375-.52-.602-1.038-1.205-1.572-1.825-4.327-4.99-8.816-9.818-13.34-14.63a190 190 0 0 1-9.276-10.67c-3.266-4.04-6.57-8.034-10-11.938l-2.602-3.003c-5.014-4.4-10.637-4.684-17.107-4.675l-2.134-.005c-2.341-.003-4.682.008-7.024.019h-5.057c-4.564-.002-9.127.01-13.69.024-4.775.013-9.548.014-14.322.016-9.035.006-18.07.023-27.104.043-10.287.022-20.575.033-30.863.043q-31.736.033-63.472.101c4.353-2.902 6.425-3.136 11.665-3.18"/><path fill="#fba590" d="M316 647c3.579 2.921 6.898 5.761 9.852 9.316 5.204 6.024 10.894 11.58 16.53 17.195q2.92 2.915 5.83 5.839l3.714 3.709 1.758 1.764c2.884 2.95 2.884 2.95 6.316 5.177v2l1.695.723c2.82 1.563 4.841 3.493 7.18 5.715 4.776 4.42 9.723 8.478 14.867 12.459a329 329 0 0 1 11.07 8.978c6.867 5.768 14.008 11.161 21.154 16.576a614 614 0 0 1 5.554 4.283 377 377 0 0 0 19.113 13.95c3.763 2.575 7.473 5.223 11.18 7.879l1.87 1.34q2.16 1.547 4.317 3.097c-1.771.64-1.771.64-4 1-1.805-.858-1.805-.858-3.66-2.254l-2.126-1.569-2.276-1.74-2.388-1.776a1077 1077 0 0 1-5.005-3.75 715 715 0 0 0-7.498-5.544C418.48 742.182 406.104 732.79 394 723l-1.761-1.417c-13.556-10.912-26.801-22.075-39.509-33.966q-2.81-2.624-5.632-5.238l-3.973-3.692-1.838-1.704c-5.503-5.13-10.982-10.3-15.85-16.045a87 87 0 0 0-6.875-7.188C316 651 316 651 316 647"/><path fill="#fca691" d="M304 573c3.844 3.546 6.298 6.957 8.75 11.563 3.83 6.965 8.296 13.213 13.25 19.437l2.254 2.84c5.04 6.25 10.327 12.238 15.746 18.16l2.484 2.766c9.28 10.268 18.847 20.504 29.438 29.437 2.305 1.994 4.527 4.064 6.753 6.145 5.895 5.51 11.917 10.734 18.325 15.652l-1 3a4490 4490 0 0 1-8.152-6.672 441 441 0 0 0-4.914-3.969c-1.347-1.077-2.647-2.211-3.934-3.359v-2l-1.787-.813c-2.232-1.197-3.784-2.446-5.62-4.18l-1.974-1.857-2.119-2.025-2.224-2.111c-6.04-5.765-11.986-11.622-17.901-17.514l-2.51-2.496A263 263 0 0 1 335 620q-1.386-1.586-2.773-3.168c-5.84-6.778-11.168-13.657-16.103-21.133-1.193-1.803-2.403-3.592-3.612-5.383q-1.226-1.845-2.45-3.691l-1.145-1.693c-2.552-3.919-3.831-7.442-4.917-11.932"/><path fill="#fca793" d="M402 261c-1.352 3-2.876 5.143-5.16 7.504l-1.894 1.98-2.009 2.079c-13.61 12.554-13.61 12.554-20.312 28.5.375 3.942.784 5.13 3.375 7.937v2h2c1.34 1.328 1.34 1.328 2.938 3.25 3.108 3.66 6.304 7.223 9.562 10.75a494 494 0 0 1 10.547 11.8 276 276 0 0 0 4.906 5.368l1.612 1.725a678 678 0 0 0 3.173 3.365c3.17 3.385 5.791 6.815 8.262 10.742-3.393-.568-4.74-1.46-6.875-4.125-3.526-4.225-7.23-8.243-11-12.25-7.357-7.85-14.57-15.809-21.617-23.937-1.258-1.408-2.594-2.746-3.945-4.063C374 312 374 312 374 310h-2c-2.632-5.159-3.584-8.191-2-14 2.752-4.494 5.935-8.469 9.375-12.437l1.548-1.794a652 652 0 0 1 12.702-14.144l1.83-2.002C399.763 261 399.763 261 402 261"/><path fill="#fca691" d="M562.25 727.313 564 728c-11.7 8.373-23.557 16.475-35.576 24.384a330 330 0 0 0-6.658 4.573l-1.92 1.318a526 526 0 0 0-4.936 3.444C512 763 512 763 509.18 762.594c-4.321-2.166-8.178-4.805-12.118-7.594l-5.046-3.52c-.838-.584-1.675-1.169-2.537-1.772a330 330 0 0 0-7.057-4.72l-2.11-1.377a591 591 0 0 0-3.943-2.539c-1.49-.973-2.936-2.016-4.369-3.072v-2c3.407.636 5.705 1.942 8.563 3.879l2.648 1.783 2.789 1.9 2.852 1.915c4.037 2.714 8.06 5.443 12.023 8.265l3.125 2.196 2.625 1.902c2.288 1.338 2.288 1.338 4.734 1.133 3.63-1.337 6.698-3.333 9.891-5.473l2.165-1.426A1119 1119 0 0 0 531 747l3.172-2.137c12.3-7.88 12.3-7.88 23.907-16.652C560 727 560 727 562.25 727.312"/><path fill="#fbb0a0" d="M544 264c6.298-.203 12.596-.343 18.896-.44q3.213-.06 6.425-.164a459 459 0 0 1 9.25-.177l2.888-.125c6.558-.005 6.558-.005 9.52 2.74 1.508 1.996 2.818 3.976 4.021 6.166l-4-1v-2h-2v-2h-42c5.247 9.862 5.247 9.862 10.563 19.688 1.498 3.453 1.534 3.977.437 7.312-3.463-5.194-6.42-10.568-9.25-16.125l-1.07-2.062-1.008-2.008-.903-1.782c-1-2.63-1.371-5.246-1.769-8.023"/><path fill="#fba795" d="M445 421c5.544 1.325 9.835 3.377 14.625 6.438l2.1 1.33c10.532 6.826 19.581 15.21 28.275 24.232l2.75 2.75a507 507 0 0 1 4.625 4.688c.866.845 1.733 1.69 2.625 2.562l1.625 1.613c3.95 3.695 6.741 5.387 12.375 5.387 2.796-.956 3.676-1.353 5-4l2 1c-1 3-1 3-3.687 4.688-3.554 1.407-5.542 1.862-9.313 1.312-4.547-2.688-8.177-5.943-11.816-9.727l-3.319-3.378a2180 2180 0 0 1-5.105-5.252c-11.264-11.598-23.56-23.263-38.822-29.33L446 424z"/><path fill="#fca792" d="M705 398c14.556 2.196 29.717 21.289 37.912 32.303 17.69 24.75 17.69 24.75 17.088 37.697-2.265-2.265-3.033-4.45-4.155-7.407-5.91-15.518-14.706-28.371-25.845-40.593l-1.945-2.195C721.749 411.062 713.282 404.14 705 400z"/><path fill="#fca791" d="M322.406 395.234 324 396l-2.125 1.54A4305 4305 0 0 0 313 404l-2.195 1.586c-9.07 6.17-9.07 6.17-15.805 14.414h-2l-.773 1.723c-1.368 2.539-2.989 4.513-4.852 6.714-4.763 5.848-8.544 12.082-12.375 18.563l-3 5c-.68-1.656-.68-1.656-1-4 3.783-8.782 10.172-16.5 16-24l1.64-2.344L290 420h2l.672-1.68c4.416-7.715 13.73-13.848 20.828-19.07l1.778-1.34c4.154-2.965 4.154-2.965 7.128-2.676"/><path fill="#fca493" d="m493.213 321.87 2.71-.009 2.948.006 3.008-.003q3.156 0 6.313.006 4.842.005 9.685-.007 3.06 0 6.12.004l2.941-.006 2.72.01 2.4.002C534 322 534 322 536 323c.37 5.415.37 5.415-1.5 8.375L533 333v-7l-43-1-1 4a129 129 0 0 1-1-6c1.557-1.557 3.049-1.127 5.213-1.13"/><path fill="#fca591" d="m615 686 3 1a582 582 0 0 1-25 20l-2.996 2.277c-7.567 5.718-15.266 11.24-23.004 16.723l-2-1c4.274-4.604 9.102-8.148 14.188-11.812 11.362-8.04 11.362-8.04 21.812-17.188 2.619-2.065 5.309-4.03 8-6l1.754-1.316c1.558-1.121 1.558-1.121 4.246-2.684"/><path fill="#fca899" d="m421 414-3.76-.016q-6.928-.026-13.855-.039-2.994-.008-5.988-.02a3190 3190 0 0 0-8.624-.023l-2.69-.015c-4.488 0-8.66.25-13.083 1.113-1.79.063-3.583.087-5.375.063l-2.648-.028L363 415c13.058-8.706 44.462-8.112 58-1"/><path fill="#fca794" d="M426 324c6.857 4.114 12.033 9.72 17.246 15.723 3.853 4.424 7.849 8.702 11.879 12.964l2.09 2.221c2.865 3.038 5.73 6.059 8.726 8.967 2.06 2.126 2.736 3.222 3.059 6.125-3.3-1.1-3.925-1.827-6.062-4.437-2.839-3.355-5.807-6.48-8.938-9.563-3.454-3.417-6.722-6.894-9.871-10.59a243 243 0 0 0-5.602-6.101l-1.907-2.02a956 956 0 0 0-3.822-4.01l-1.786-1.888-1.61-1.687c-1.483-1.802-2.44-3.585-3.402-5.704"/><path fill="#fca792" d="m713 582 3 1c-6.917 12.07-14.53 22.883-23.662 33.385-1.527 1.787-1.527 1.787-3.338 4.615h-2l-.75 1.813c-1.414 2.473-2.9 3.62-5.25 5.187.585-3.118 1.452-4.85 3.59-7.18l1.612-1.793 1.736-1.902C697.617 606.228 705.56 594.511 713 582"/><path fill="#fca18e" d="M565 322q6.14-.037 12.28-.055 2.09-.008 4.179-.02c2-.013 4.001-.018 6.002-.023l3.65-.016C594 322 594 322 596 323c-.577 3.4-1.61 4.927-4.125 7.25a103 103 0 0 0-7.5 7.938c-2.564 2.98-5.18 5.489-8.375 7.812.589-3.385 1.696-5.097 4.055-7.566l1.863-1.971 1.957-2.026 1.934-2.037A470 470 0 0 1 594 324h-29z"/><path fill="#fb9f8c" d="M413 289c1 3 1 3 1 5l48 1c-2 2-2 2-4.139 2.24l-2.678-.013h-3.033l-3.283-.032-3.354-.008c-3.546-.011-7.092-.037-10.638-.062q-3.6-.016-7.2-.027-8.837-.034-17.675-.098c-.621-1.86-.621-1.86-1-4 1.938-2.25 1.938-2.25 4-4"/><path fill="#fca18d" d="M296 477c1.675 3.35.282 6.936-.375 10.5-2.008 11.042-2.806 21.91-3.187 33.125l-.131 3.621q-.158 4.377-.307 8.754h-1c-3.031-13.353-2.037-29.684 1-43l.766-3.402c1.988-8.352 1.988-8.352 3.234-9.598"/><path fill="#fca792" d="m324 434 2 1-2.309 2.57c-9.63 10.878-17.362 21.964-23.5 35.2C299 475 299 475 297 476c4.408-16.684 14.51-30.343 27-42"/><path fill="#fda897" d="m633.813 376.813 3.638-.038 3.506-.005 3.156-.013c2.993.252 5.176.984 7.887 2.243v1l-2.336-.016q-5.301-.029-10.601-.046l-3.674-.026c-5.899-.016-11.646.1-17.496.863-2.658.316-5.282.321-7.956.288l-2.847-.028L605 381c8.299-5.533 19.163-4.182 28.813-4.187"/><path fill="#fa9a84" d="M547 264q8.804-.296 17.615-.44 2.994-.06 5.988-.164c2.875-.097 5.747-.142 8.624-.177l2.69-.125c3.857-.003 6.141.015 9.023 2.74A54 54 0 0 1 595 272l-4-1v-2h-2l-1-2-41-1z"/><path fill="#fba48d" d="m579 756 2 1c-3.532 3.721-7.234 6.778-11.473 9.68l-1.833 1.263q-1.904 1.307-3.814 2.607a691 691 0 0 0-5.82 4.028l-3.72 2.54-1.746 1.227c-4.053 2.713-4.053 2.713-6.99 2.398L544 780c8.66-5.986 17.339-11.938 26.125-17.738 3.028-2.004 6-4.042 8.875-6.262"/><path fill="#fca591" d="M402 683c3.742.524 5.725 1.257 8.438 3.875 3.719 3.423 7.582 6.578 11.562 9.688l1.834 1.438a357 357 0 0 0 10.041 7.562L437 708v2c-4.31-.527-7.184-3.235-10.437-5.875l-1.846-1.475C408.131 689.322 408.131 689.322 402 683"/><path fill="#fda696" d="M650 412v1h-44c12.29-6.145 30.908-3.59 44-1"/><path fill="#fca591" d="M259 487h1q.04 2.063.063 4.125l.035 2.32C260 496 260 496 259.5 498.672c-.56 3.733-.626 7.37-.598 11.133l.005 2.194c.005 2.292.018 4.584.03 6.876q.008 2.343.014 4.688.017 5.719.049 11.437c-3.894-5.84-3.22-11.57-3.24-18.385-.01-2.014-.04-4.028-.072-6.043-.033-8.306.839-15.634 3.312-23.572"/><path fill="#fca08d" d="M427 322q6.966-.185 13.934-.275 2.37-.038 4.74-.102a401 401 0 0 1 6.814-.111l2.14-.078c2.002-.002 2.002-.002 5.372.566 2.57 3.154 3.388 5.796 3.688 9.813l.199 2.394L464 336l-1-2h-2c-1.316-3.62-2-6.096-2-10h-31z"/><path fill="#fba690" d="M543 782c-1.2 3.601-2.136 4.026-5.262 6.031l-2.642 1.707-2.784 1.762-2.724 1.762c-12.764 8.185-12.764 8.185-18.463 7.926l-2.367-.083L507 801l-1-3 3.625.5c9.855.016 19.85-8.604 27.484-14.152C540.403 782 540.403 782 543 782"/><path fill="#fca590" d="M732 496c5.215 10.43 3.894 25.742 2 37l-2 3z"/><path fill="#fca58d" d="m723 628 1 3a60 60 0 0 1-4.25 5.938l-1.355 1.722c-4.14 5.184-8.594 10.057-13.145 14.88-2.347 2.441-2.347 2.441-4.25 5.46l-3-1 1.652-1.8c8.232-9.049 15.9-18.5 23.348-28.2"/><path fill="#fb9e8b" d="M525 288c2.063 1.688 2.063 1.688 4 4l-1 5h-34l1-2 32-1v-2h-2z"/><path fill="#fca692" d="M693 431c4.072 2.256 7.371 4.935 10.813 8.063l2.957 2.66C709 444 709 444 709 446h2c1.727 2.188 1.727 2.188 3.625 5l1.914 2.813L718 456l-1 2c-3.882-3.768-7.795-7.628-11-12v-2h-2a279 279 0 0 1-5-5q-1.644-1.327-3.312-2.625L693 434z"/><path fill="#fba38d" d="m440.668 263.707 2.705.03 2.815.075 2.85.042q3.48.053 6.962.146v2l-3.07.148-4.055.227c-.665.03-1.33.062-2.016.094-6.371.375-11.217 1.285-15.671 6.031l-1.77 1.844c-1.498 1.614-1.498 1.614-2.418 3.656l-3-1q2.154-2.408 4.313-4.812l2.425-2.708L433 267l1.35-1.637c2.198-1.815 3.495-1.71 6.318-1.656"/><path fill="#fba997" d="M420 359c5.125 4.1 9.538 8.656 13.926 13.518 3.576 3.959 7.26 7.753 11.074 11.482l-2 2-1-3-1.762-.371c-3.358-.944-4.78-3.092-7.05-5.692-.435-.494-.87-.988-1.317-1.498A1286 1286 0 0 1 428 371l-2.172-2.367-1.89-2.07-1.66-1.81c-1.396-1.915-1.866-3.437-2.278-5.753"/><path fill="#fca692" d="M573 348c0 3 0 3-1.941 5.2l-2.621 2.488c-3.834 3.713-7.43 7.498-10.899 11.55-2.073 2.374-4.277 4.569-6.539 6.762l-4-2 1.75-.687c2.803-1.636 4.254-3.785 6.25-6.313h2l.66-1.648c1.788-3.138 4.214-5.477 6.778-7.977l1.486-1.484c2.265-2.238 4.418-4.119 7.076-5.891"/><path fill="#fba48d" d="M293 618c3.547 3.403 6.545 6.905 9.438 10.875 2.6 3.532 5.214 6.968 8.125 10.25C313 642 313 642 313 644c-8.008-3.081-16.091-15.516-20-23z"/><path fill="#fca28e" d="M766 510c2 2 2 2 2.243 3.952l-.013 2.372-.005 2.62-.038 2.744-.001 2.685c-.089 13.267-.089 13.267-2.749 16.564L764 542l.184-2.43c.726-9.85 1.29-19.706 1.816-29.57"/><path fill="#fca58d" d="M748 589c.84 2.366 1.165 3.565.259 5.951l-1.208 2.018-1.322 2.23-1.417 2.301c-.447.76-.895 1.519-1.357 2.3-2.316 3.851-4.55 7.201-7.955 10.2l-1-2c.956-2.015.956-2.015 2.457-4.465l1.623-2.674 1.732-2.798 1.698-2.788c2.114-3.462 4.24-6.9 6.49-10.275"/><path fill="#fba692" d="m655 651 3 1c-13.85 14.106-13.85 14.106-18 17h-3a732 732 0 0 1 3.875-4.5l2.18-2.531L645 660h2l.188-1.812c1.14-3.071 2.99-3.674 5.812-5.188z"/><path fill="#fba591" d="M461 770c5.034 1.648 9.026 4.606 13.313 7.625l2.244 1.563q2.726 1.9 5.443 3.812c-1.823.592-1.823.592-4 1-2.84-1.477-2.84-1.477-5.937-3.625l-3.09-2.102A62 62 0 0 1 461 771z"/><path fill="#fba38c" d="M637 714c-1.582 4.53-5.156 6.856-8.812 9.688l-1.87 1.51c-3.367 2.637-5.915 4.441-10.318 4.802 3.653-3.888 7.606-7.12 11.848-10.352a167 167 0 0 0 5.09-4.086C635 714 635 714 637 714"/><path fill="#fda592" d="M651 413c9.175.043 16.742 3.4 25 7v1c-5.573-.341-10.587-1.688-15.875-3.437l-2.02-.66c-2.919-.992-4.896-1.694-7.105-3.903"/><path fill="#fca791" d="m418 240 4 1-3.187 3.188-1.942 1.945q-2.236 2.227-4.496 4.43c-2.63 2.7-4.996 5.514-7.375 8.437l-1-3 2.3-2.484 3.012-3.266 1.514-1.633c2.554-2.773 4.985-5.539 7.174-8.617"/><path fill="#fca999" d="M605 413c-3.412 3.022-7.047 4.093-11.375 5.188l-1.96.537c-3.974 1.037-7.566 1.459-11.665 1.275 2.773-2.773 6.029-3.49 9.688-4.625l2.107-.695c4.573-1.435 8.415-1.919 13.205-1.68"/><path fill="#fca996" d="M595 273c7.009 2.336 11.78 11.188 16 17l-3 1q-2.699-3.084-5.375-6.187l-1.54-1.752c-2.753-3.207-4.801-5.954-6.085-10.061"/><path fill="#fca58f" d="M724 559h2c-.544 5.474-2.554 9.583-5.062 14.375l-1.143 2.23A918 918 0 0 1 717 581c-1-2-1-2-.11-4.793.45-1.12.898-2.24 1.36-3.394l1.402-3.524c1.413-3.448 2.842-6.881 4.348-10.289"/><path fill="#fda593" d="M503 369c3.772 2.515 4.342 5.123 5.625 9.25l.656 1.988c1.254 3.894 2.153 7.712 2.719 11.762h-2q-1.759-4.903-3.5-9.812l-1.012-2.815-.957-2.705-.888-2.491C503 372 503 372 503 369"/><path fill="#fca592" d="M449 720c5.124.46 8.328 3.079 12.313 6.063l1.955 1.431A743 743 0 0 1 468 731l-1 3a2122 2122 0 0 1-6.75-4.75l-1.922-1.344c-3.406-2.413-6.478-4.826-9.328-7.906"/><path fill="#fdab99" d="M364 381c-3.823 2.549-7.603 3.474-12 4.688l-2.484.72-2.391.666-2.18.612C343 388 343 388 340 387l4-1v-2c6.876-2.16 12.785-3.355 20-3"/><path fill="#fba48d" d="M485 786c3.5 1.285 6.388 2.801 9.438 4.938 3.429 2.345 6.793 4.323 10.562 6.062v1c-5.036.663-8.231-1.624-12.25-4.312l-1.93-1.225c-4.688-3.068-4.688-3.068-5.82-6.463"/><path fill="#fca691" d="m633 671 3 1q-2.341 2.127-4.687 4.25l-2.637 2.39A175 175 0 0 1 621 685l-2-1c3.89-5.145 8.395-9.715 14-13"/><path fill="#fca591" d="M562 327h1c.626 6.888-1.642 12.589-4 19h-2l-1 2c1.211-7.347 3.287-14.072 6-21"/><path fill="#fca58f" d="M676 632c0 3 0 3-1.875 5.188C672 639 672 639 670 639l-.75 1.75c-1.417 2.55-3.126 4.268-5.25 6.25l-2-1c3.625-5.875 3.625-5.875 7-7l.875-1.875c1.485-2.804 3.365-3.672 6.125-5.125"/><path fill="#fca48e" d="M274 586c2.76 2.456 4.325 5.13 6.063 8.375l1.535 2.836A82 82 0 0 1 285 605l-2-1v-2l-3-1c-1.605-2.363-1.605-2.363-3.187-5.312l-1.606-2.926C274 590 274 590 274 586"/><path fill="#fca38b" d="m652 700 2 1c-3.628 4.762-7.662 9.13-13 12l-3-1z"/><path fill="#fda390" d="m599.25 380.938 2.703.027L604 381c-3.652 2.064-7.537 3.112-11.562 4.188l-2.038.576c-3.338.898-5.05 1.352-8.4.236q1.871-.975 3.75-1.937l2.11-1.09c3.874-1.76 7.148-2.091 11.39-2.036"/><path fill="#fca591" d="M731 538h1c-.313 7.361-1.94 13.309-5 20h-1c.476-7.254 2.295-13.268 5-20"/><path fill="#fca18e" d="m292 534 1 4h2c1.298 5.76 2.257 11.087 2 17-2.72-2.72-2.848-5.065-3.625-8.812-.26-1.224-.52-2.447-.79-3.708-.492-2.928-.709-5.525-.585-8.48"/><path fill="#fca58c" d="M756 570h1c-.447 6.152-1.648 11.718-5 17l-3 1c1.936-6.205 4.256-12.108 7-18"/><path fill="#faa38f" d="M538 449c-.324 3.064-.989 3.99-3.285 6.14l-2.778 2.11-2.785 2.14L527 461c0-3 0-3 1.898-5.262l2.477-2.425 2.46-2.45C536 449 536 449 538 449"/><path fill="#fc9f89" d="M497 351c4.004 2.67 4.821 5.441 6 10 .217 2.404.151 4.58 0 7-2.487-2.487-3.034-4.605-4.125-7.937l-1.07-3.215C497 354 497 354 497 351"/><path fill="#fca592" d="M517 272h2q1.543 3.18 3.063 6.375l1.722 3.586L525 285l-1 2c-2.309-2.123-3.784-4.136-5.187-6.937l-1.043-2.028C517 276 517 276 517 272"/><path fill="#fca28b" d="M264 468c1.663 3.326-.02 6.684-.937 10.125l-.592 2.285q-.728 2.797-1.471 5.59h-1c-.403-6.453.358-11.082 3-17z"/><path fill="#fca38c" d="m644 313 1 3-1.715 1.68-2.222 2.195-2.215 2.18c-1.905 1.815-1.905 1.815-2.848 3.945h-3v-2h2l.773-1.766c1.344-2.448 2.845-4.051 4.852-5.984l1.914-1.86z"/><path fill="#fba28c" d="M669 687c-1.437 3.358-3.21 5.4-5.937 7.813l-2.09 1.894L659 698l-3-1a1196 1196 0 0 1 5.375-5l1.54-1.445C666.772 687 666.772 687 669 687"/><path fill="#fca28a" d="M261 548c1.965 2.947 2.756 5.12 3.688 8.5.271.96.543 1.918.824 2.906C266 562 266 562 265 565v-2h-2c-2.104-5.13-2.218-9.561-2-15"/><path fill="#fba28a" d="M267 569c3.143 1.572 3.46 4.229 4.688 7.438l1.386 3.558C274 583 274 583 273 585c-2.706-1.353-3.223-3.235-4.336-5.945-1.074-3.324-1.36-6.581-1.664-10.055"/><path fill="#fca590" d="M724 470c2.594 2.273 3.683 4.234 4.75 7.5l.797 2.344C730 482 730 482 729 485v-2h-2a479 479 0 0 1-1.5-4.25l-.844-2.39C724 474 724 474 724 470"/><path fill="#fda28c" d="M297 556c3.996 2.664 4.756 5.482 6 10 .188 3 .188 3 0 5-3.648-4.169-6-9.448-6-15"/><path fill="#fca189" d="m761 471 1 3h2c1.05 3.15 1.101 5.388 1.063 8.688l-.028 3.011L765 488c-1.517-2.805-2.453-5.386-3.125-8.5l-.508-2.281C761 475 761 475 761 471"/><path fill="#fda693" d="M677 421q2.974 1.428 5.938 2.875l3.34 1.617C689 427 689 427 690 429c-4.86-.607-8.74-2.728-13-5z"/><path fill="#fca490" d="M523 361c1.26 3.779.48 5.034-.937 8.688l-1.153 3.011L520 375h-1q.212-2.408.438-4.812c.08-.894.162-1.787.246-2.708C520 365 520 365 521 362z"/><path fill="#fca28c" d="M555 349h1a348 348 0 0 1-.375 4.25c-.07.789-.14 1.578-.21 2.39-.43 2.446-1.201 4.208-2.415 6.36h-2q.428-2.126.875-4.25l.492-2.39c.625-2.328 1.481-4.25 2.633-6.36"/><path fill="#fca592" d="M682 387c4.973.497 8.638 1.553 13 4v2c-4.685-1.218-8.705-2.696-13-5z"/><path fill="#fda28e" d="M492 336c3.683 2.455 3.946 3.785 5 8 .125 3.375.125 3.375 0 6-2.035-2.035-2.638-3.234-3.625-5.875-.26-.678-.52-1.356-.79-2.055C492 340 492 340 492 336"/><path fill="#fd9f89" d="m324 434 2 1a663 663 0 0 1-3.812 4.438l-2.145 2.496C318 444 318 444 315 445c1.408-3.215 3.103-5.322 5.625-7.75l1.914-1.86z"/><path fill="#fba594" d="M472 360c3.459 3.459 4 7.219 4 12l2 1c-1.875-.187-1.875-.187-4-1-2.302-3.914-2.175-7.547-2-12"/><path fill="#fca28d" d="M528 346c1 2 1 2 .223 4.82l-1.16 3.305-1.153 3.32L525 360h-1c-.315-5.258.3-8.464 3-13z"/><path fill="#fda08a" d="m613 346 1 3-9 8-2-1z"/><path fill="#fca28a" d="M732 615c1 4 1 4 .004 5.922l-1.442 1.828-1.433 1.86L728 626l-3-1z"/><path fill="#fba28b" d="m554 433 2 1-8 8-3-1z"/><path fill="#fca794" d="M661 380c7.156.34 7.156.34 10 2.563l1 1.437c-4.38-.52-8.688-1.057-13-2z"/><path fill="#fca48f" d="M438 711c7.87 3.118 7.87 3.118 10 6v2c-3.583-1.654-6.81-3.68-10-6z"/><path fill="#fca187" d="m681 675 1 3c-1.26 1.2-2.533 2.384-3.812 3.563l-2.145 2.003L674 685l-3-1z"/><path fill="#fcaa99" d="M730 486c2.875 2.875 2.836 6.105 3 10-.437 3-.437 3-1 5h-1c-1.036-5.05-1.103-9.874-1-15"/><path fill="#fda390" d="m359.688 380.875 2.449.055L364 381c-4.653 3.102-9.415 4.338-15 4 6.375-4.25 6.375-4.25 10.688-4.125"/><path fill="#fca18c" d="m598 362 1 3c-1.215 1.824-1.215 1.824-2.937 3.688l-1.715 1.886L593 372l-3-1z"/><path fill="#fca691" d="M475 268c1 3 1 3 .004 5.262l-1.442 2.425-1.433 2.45L471 280c-.652-1.734-.652-1.734-1-4 .996-2.14.996-2.14 2.438-4.25l1.433-2.14z"/><path fill="#fca28b" d="M760 557h1l-1 10h-2l-1 2c.508-4.318 1.197-8.033 3-12"/><path fill="#fca592" d="M586 264c2.54.385 3.728.701 5.484 2.629l1.266 1.933 1.297 1.942L595 272l-4-1v-2h-2c-1.625-1.375-1.625-1.375-3-3z"/><path fill="#fd9f83" d="M763 543h1c.081 1.603.14 3.208.188 4.813l.105 2.707c-.342 2.896-1.047 3.706-3.293 5.48q.212-2.408.438-4.812c.08-.894.162-1.787.246-2.708C762 546 762 546 763 543"/><path fill="#fda793" d="M718 459h2c3.223 5.176 3.223 5.176 4 7l-1 3a300 300 0 0 1-2.5-3.312l-1.406-1.864C718 462 718 462 718 459"/><path fill="#fda38f" d="M592 417h-2v2l-10 1c3.384-3.384 7.436-4.756 12-3"/><path fill="#fca491" d="M424 382c1.437-.081 2.874-.14 4.313-.187l2.425-.106c2.74.355 3.554 1.187 5.262 3.293-1.626-.114-3.25-.242-4.875-.375-.905-.07-1.81-.14-2.742-.21C426 384 426 384 424 382"/><path fill="#fba28b" d="m590 748 1 3c-2.25 2.063-2.25 2.063-5 4l-4-1z"/><path fill="#fda48f" d="m348 419 2 1c-1.547 3.094-3.88 3.716-7 5-2.2-.418-2.2-.418-4-1a432 432 0 0 1 4.375-2.562l2.46-1.442z"/><path fill="#fda490" d="M362 416c-3.833 2.706-6.325 3.326-11 3 3.818-3.028 6.186-4.494 11-3"/><path fill="#fca28c" d="M517 378c.955 2.17 1.144 3.563.398 5.824-.757 1.744-1.574 3.462-2.398 5.176h-1l1-9h2z"/><path fill="#fba28e" d="M420 359a271 271 0 0 1 3.5 2.813l1.969 1.582C427 365 427 365 427 368a271 271 0 0 1-3.5-2.812l-1.969-1.583C420 362 420 362 420 359"/><path fill="#fba18b" d="M286 607c3.08 2.773 4.688 5.063 6 9-3.161-1.37-3.993-1.99-6-5z"/><path fill="#f89d89" d="m519 466 2 1c-1 3-1 3-4 5-2.332.08-4.668.088-7 0 2.053-1.026 4.1-2.046 6.188-3 1.984-.871 1.984-.871 2.812-3"/><path fill="#fc9f87" d="M503 369c3 2 3 2 3.512 4.164l.175 2.461.2 2.477L507 380c-2.313-2.313-2.496-3.479-3.125-6.625l-.508-2.477z"/><path fill="#fca18c" d="M532 334c1.136 3.41.867 4.003-.437 7.188l-.872 2.167L530 345h-1c.114-1.46.242-2.917.375-4.375.07-.812.14-1.624.21-2.46C530 336 530 336 532 334"/><path fill="#fda48e" d="M507 266c1 4 1 4-.437 6.75L505 275l-3-1z"/><path fill="#fda28d" d="M433 417c4.557.438 7.577.85 11 4-5.75.125-5.75.125-8-1v-2z"/><path fill="#fba68d" d="m692 664 1 3-4 4-3-1z"/><path fill="#fda08b" d="M626 334c-1.453 3.83-3.429 5.12-7 7 3.138-7 3.138-7 7-7"/><path fill="#fda18d" d="M508 264c2.813-.312 2.813-.312 6 0 1.938 2.375 1.938 2.375 3 5l-1 2c-1.5-1.312-1.5-1.312-3-3v-3h-5z"/><path fill="#fda08a" d="m566 425 3 1c-2.25 2.063-2.25 2.063-5 4-2.312-.25-2.312-.25-4-1 2.813-2.062 2.813-2.062 6-4"/><path fill="#fca08c" d="M422 414c7.75.75 7.75.75 10 3-6.523.37-6.523.37-8.937-1.5z"/><path fill="#fda48f" d="M337 389c-1 2-1 2-3.375 3.188C331 393 331 393 328 392h2v-2c2.463-1.231 4.28-1.072 7-1"/><path fill="#fab6aa" d="m523 291 2 2h-2z"/><path fill="#f3afa0" d="m497 797 2 1Z"/><path fill="#f6b1a3" d="m425 749 2 1Z"/><path fill="#f6b4a9" d="m566 327 2 1Z"/><path fill="#fbb3a8" d="m528 326 2 1Z"/><path fill="#f9b6a9" d="m456 326 2 1Z"/></svg>