<?xml version="1.0" encoding="UTF-8"?>
<svg version="1.1" xmlns="http://www.w3.org/2000/svg" width="1024" height="1024">
<path d="M0 0 C0.7109837 -0.00805894 1.42196741 -0.01611788 2.15449607 -0.02442104 C4.53717078 -0.04879054 6.91968428 -0.05885701 9.30245972 -0.06880188 C11.01094674 -0.08297198 12.71942772 -0.09788806 14.42790222 -0.11349487 C20.03951986 -0.16071093 25.65115252 -0.18642243 31.26290894 -0.21064758 C33.19679683 -0.220057 35.13068432 -0.22955146 37.06457138 -0.23913002 C45.11119365 -0.27762272 53.15780547 -0.31083362 61.2045002 -0.32950115 C72.72505896 -0.35629468 84.24449317 -0.41381195 95.76464474 -0.51526612 C103.87097574 -0.58420703 111.97700835 -0.61847454 120.08362567 -0.62706596 C124.92233197 -0.63306071 129.75988109 -0.65392807 134.59827042 -0.71162987 C139.15420628 -0.76514126 143.70826315 -0.77548459 148.26444054 -0.75348473 C149.93092088 -0.75277072 151.59749282 -0.7673015 153.2636776 -0.79869461 C161.27215159 -0.94119683 167.46540627 -0.97472151 173.79510498 4.62716675 C175.22018185 6.14628458 176.60728669 7.7024746 177.94259644 9.30107117 C178.57401613 9.99358129 179.20543583 10.6860914 179.85598946 11.39958668 C181.42086179 13.1174374 182.90604926 14.88001369 184.38009644 16.67607117 C187.83108181 20.91924353 187.83108181 20.91924353 191.60299683 24.86601257 C192.94259644 26.30107117 192.94259644 26.30107117 192.94259644 28.30107117 C193.60259644 28.30107117 194.26259644 28.30107117 194.94259644 28.30107117 C196.27240736 29.79216351 197.52958374 31.34813831 198.75509644 32.92607117 C203.03473082 38.29468869 207.58408908 43.31098434 212.33639526 48.26445007 C221.2681551 57.68289828 221.2681551 57.68289828 222.57150269 62.74247742 C222.53863159 63.79241882 222.53863159 63.79241882 222.50509644 64.86357117 C222.5063855 65.56611023 222.50767456 66.26864929 222.50900269 66.99247742 C220.99973641 73.14403857 216.03675972 77.43198258 211.63009644 81.67607117 C207.41516269 85.80674134 203.37018954 89.97523928 199.54806519 94.47685242 C197.13599402 97.21757562 194.51576271 99.73673982 191.91525269 102.29716492 C189.36921814 104.88353268 187.02238087 107.61642397 184.65744019 110.36747742 C182.44212264 112.86538672 180.07361473 115.18132106 177.69259644 117.51982117 C175.86017156 119.38496791 174.14906509 121.32034862 172.44259644 123.30107117 C169.66141274 126.52923082 166.73504868 129.53175006 163.69650269 132.51591492 C161.22673797 135.02968435 158.95299074 137.69865085 156.65353394 140.36747742 C154.20069616 143.13952011 151.5914865 145.71678818 148.94259644 148.30107117 C149.60259644 148.63107117 150.26259644 148.96107117 150.94259644 149.30107117 C151.27259644 148.64107117 151.60259644 147.98107117 151.94259644 147.30107117 C153.66525269 146.77372742 153.66525269 146.77372742 156.00509644 146.36357117 C156.903573 146.20114929 157.80204956 146.03872742 158.72775269 145.87138367 C159.78865112 145.68318054 160.84954956 145.49497742 161.94259644 145.30107117 C163.22005737 145.05099304 164.49751831 144.80091492 165.81369019 144.54325867 C206.31512483 136.6441616 245.31143841 141.90309147 279.77462769 165.09794617 C300.51384372 179.52077951 315.75134083 198.21275399 325.94259644 221.30107117 C326.42341675 222.38775085 326.90423706 223.47443054 327.39962769 224.59403992 C343.14208646 262.88008013 338.48383991 306.74307583 323.04318237 344.2922821 C311.12509455 372.21369466 292.33031988 397.03553109 271.94259644 419.30107117 C271.07634644 420.26013367 270.21009644 421.21919617 269.31759644 422.20732117 C261.34601305 431.01328929 253.20663981 439.65067529 244.15744019 447.36747742 C241.82957394 449.3997416 239.57160951 451.49434621 237.31393433 453.60380554 C231.05899568 459.44428761 224.62389649 464.94908049 217.94259644 470.30107117 C216.6798203 471.33102612 215.41817517 472.36236871 214.15744019 473.39482117 C206.49673148 479.66368331 198.77666501 485.82700361 190.89376831 491.81523132 C188.57729372 493.57925339 186.26786779 495.35233745 183.95822144 497.12528992 C174.67446928 504.24134774 165.35852883 511.27189954 155.78849792 517.99836731 C153.97236956 519.28005945 152.16322686 520.5710292 150.35568237 521.86479187 C139.5189027 529.60060111 128.47964725 537.00634166 117.35568237 544.32182312 C114.41552385 546.25638435 111.4797179 548.19743005 108.54415894 550.13896179 C106.64597705 551.39000076 104.74754848 552.64066554 102.84884644 553.89091492 C101.98618164 554.46180344 101.12351685 555.03269196 100.23471069 555.62088013 C83.9758423 566.28776193 83.9758423 566.28776193 77.36056519 565.83232117 C65.95124569 563.32558861 55.53587423 554.68702988 45.94259644 548.30107117 C44.92423706 547.63075867 43.90587769 546.96044617 42.85665894 546.26982117 C39.87325059 544.29759604 36.90571845 542.30365961 33.94259644 540.30107117 C33.26003784 539.84007019 32.57747925 539.37906921 31.87423706 538.90409851 C13.56668405 526.51841388 -4.21758672 513.53897712 -21.74539185 500.07402039 C-23.71826905 498.56113398 -25.69619935 497.05547869 -27.67849731 495.55497742 C-45.61724254 481.91615614 -62.87422697 467.31357574 -79.3274231 451.91777039 C-81.20062106 450.16723173 -83.07981858 448.42328476 -84.95974731 446.67997742 C-86.28411343 445.44966727 -87.60833483 444.21920134 -88.93240356 442.98857117 C-89.5388269 442.42605652 -90.14525024 441.86354187 -90.77005005 441.28398132 C-96.8318127 435.63387631 -102.65295679 429.86349699 -108.05740356 423.57841492 C-109.9676759 421.40324154 -111.93120571 419.28594165 -113.91018677 417.17338562 C-153.10245841 375.17335033 -177.70164942 324.84637005 -176.20974731 266.78153992 C-175.88869168 259.44665346 -174.82283935 252.41965272 -173.05740356 245.30107117 C-172.88579712 244.59772644 -172.71419067 243.89438171 -172.53738403 243.16972351 C-167.37446549 222.67030699 -157.99084487 204.94410417 -145.05740356 188.30107117 C-144.24529419 187.14091492 -144.24529419 187.14091492 -143.41677856 185.95732117 C-142.74388794 185.13747742 -142.74388794 185.13747742 -142.05740356 184.30107117 C-141.39740356 184.30107117 -140.73740356 184.30107117 -140.05740356 184.30107117 C-139.83568481 183.74677429 -139.61396606 183.19247742 -139.38552856 182.62138367 C-131.20295322 168.3259432 -110.66248311 157.5510661 -96.05740356 151.30107117 C-94.39177958 150.96256616 -92.72548849 150.62723302 -91.05740356 150.30107117 C-90.72740356 149.64107117 -90.39740356 148.98107117 -90.05740356 148.30107117 C-87.571876 147.54778858 -85.15044369 146.92359505 -82.61990356 146.36357117 C-81.86000122 146.19172302 -81.10009888 146.01987488 -80.31716919 145.84281921 C-50.39797024 139.2312653 -23.98027304 140.27508155 5.94259644 147.30107117 C2.04737787 141.89867961 -2.08542164 136.92856099 -6.68240356 132.11357117 C-7.92101143 130.80137939 -9.15928688 129.48887377 -10.39724731 128.17607117 C-11.01196899 127.52638367 -11.62669067 126.87669617 -12.26004028 126.20732117 C-14.94273661 123.36210344 -17.59576888 120.49001138 -20.24490356 117.61357117 C-20.73281372 117.08433044 -21.22072388 116.55508972 -21.72341919 116.0098114 C-44.62405867 91.15619682 -44.62405867 91.15619682 -52.58474731 81.95341492 C-53.82967583 80.55658531 -55.15477313 79.23183928 -56.49490356 77.92607117 C-58.05740356 76.30107117 -58.05740356 76.30107117 -58.05740356 74.30107117 C-58.71740356 74.30107117 -59.37740356 74.30107117 -60.05740356 74.30107117 C-62.68950184 69.14215854 -63.64154783 66.10960014 -62.05740356 60.30107117 C-59.29060755 55.77987496 -56.08072789 51.79178247 -52.61990356 47.80107117 C-52.10129761 47.19867615 -51.58269165 46.59628113 -51.04837036 45.97563171 C-46.72292292 40.98741932 -42.23745627 36.1602667 -37.71292114 31.35307312 C-34.42615752 27.84048997 -31.31658856 24.24612739 -28.30740356 20.48857117 C-24.22365753 15.38952915 -19.7520207 10.83411448 -15.05740356 6.30107117 C-14.39353638 5.5985321 -13.72966919 4.89599304 -13.04568481 4.17216492 C-8.92410296 0.29350537 -5.6039894 0.04331461 0 0 Z M-0.99490356 35.92607117 C-1.6742395 36.64150085 -2.35357544 37.35693054 -3.05349731 38.09403992 C-5.48388621 40.77078402 -7.89001501 43.4632907 -10.24880981 46.20341492 C-12.30720715 48.59080016 -14.39862442 50.9469018 -16.49490356 53.30107117 C-17.1742395 54.06419617 -17.85357544 54.82732117 -18.55349731 55.61357117 C-19.04978638 56.17044617 -19.54607544 56.72732117 -20.05740356 57.30107117 C-19.72740356 57.96107117 -19.39740356 58.62107117 -19.05740356 59.30107117 C-2.88740356 58.97107117 13.28259644 58.64107117 29.94259644 58.30107117 C32.58259644 53.02107117 35.22259644 47.74107117 37.94259644 42.30107117 C39.26259644 39.66107117 40.58259644 37.02107117 41.94259644 34.30107117 C41.94259644 33.31107117 41.94259644 32.32107117 41.94259644 31.30107117 C33.3856898 30.70801823 24.83416555 30.19481235 16.25509644 30.11357117 C14.36210815 30.09230164 14.36210815 30.09230164 12.43087769 30.07060242 C6.7003004 30.44921839 2.95708757 31.73178037 -0.99490356 35.92607117 Z M76.94259644 30.30107117 C74.92024223 33.96172583 72.90839951 37.62789534 70.90621948 41.29960632 C70.22323083 42.54858343 69.53736399 43.79599101 68.84860229 45.04179382 C67.86064944 46.82992448 66.88309123 48.62339314 65.90744019 50.41825867 C65.0197998 52.03643494 65.0197998 52.03643494 64.11422729 53.68730164 C63.72758911 54.54984558 63.34095093 55.41238953 62.94259644 56.30107117 C63.27259644 56.96107117 63.60259644 57.62107117 63.94259644 58.30107117 C73.84259644 58.30107117 83.74259644 58.30107117 93.94259644 58.30107117 C92.56124738 54.157024 91.27684348 50.72923392 89.34103394 46.90263367 C88.85119019 45.92939148 88.36134644 44.95614929 87.85665894 43.95341492 C87.34876831 42.95439148 86.84087769 41.95536804 86.31759644 40.92607117 C85.80197144 39.9038446 85.28634644 38.88161804 84.75509644 37.82841492 C83.48787771 35.31744448 82.21695087 32.80842555 80.94259644 30.30107117 C79.62259644 30.30107117 78.30259644 30.30107117 76.94259644 30.30107117 Z M114.94259644 31.30107117 C118.1013585 40.77735736 123.30768499 49.45260386 127.94259644 58.30107117 C145.10259644 58.63107117 162.26259644 58.96107117 179.94259644 59.30107117 C174.89285146 52.55998668 174.89285146 52.55998668 169.44259644 46.30107117 C166.0473589 42.6023807 162.99476343 38.82356832 160.13400269 34.69950867 C159.54425659 34.0072821 159.54425659 34.0072821 158.94259644 33.30107117 C158.28259644 33.30107117 157.62259644 33.30107117 156.94259644 33.30107117 C156.94259644 32.64107117 156.94259644 31.98107117 156.94259644 31.30107117 C143.08259644 31.30107117 129.22259644 31.30107117 114.94259644 31.30107117 Z M-3.05740356 89.30107117 C1.48208769 94.63457668 1.48208769 94.63457668 6.16915894 99.80888367 C6.71974976 100.39629333 7.27034058 100.983703 7.83761597 101.58891296 C8.40850952 102.19517517 8.97940308 102.80143738 9.56759644 103.42607117 C13.60155419 107.72450694 17.62191566 112.03300693 21.59933472 116.38383484 C27.85523941 123.22122452 34.33751897 129.80139387 40.94259644 136.30107117 C42.05003929 132.97874261 41.88574117 132.40334576 40.78683472 129.24443054 C40.50969635 128.43348938 40.23255798 127.62254822 39.94702148 126.78703308 C39.63876434 125.91510315 39.3305072 125.04317322 39.01290894 124.14482117 C38.70312103 123.24614319 38.39333313 122.34746521 38.07415771 121.42155457 C37.08042979 118.54504767 36.07421846 115.67308813 35.06759644 112.80107117 C34.39619201 110.86516143 33.72560887 108.92896665 33.05587769 106.99247742 C31.57857045 102.72502002 30.09332132 98.46042113 28.60107422 94.19816589 C28.03594756 92.57001862 27.48759476 90.93606613 26.94259644 89.30107117 C17.04259644 89.30107117 7.14259644 89.30107117 -3.05740356 89.30107117 Z M57.94259644 89.30107117 C59.73697144 94.66357117 61.53134644 100.02607117 63.38009644 105.55107117 C68.68350975 121.43152073 73.86840152 137.34580696 78.94259644 153.30107117 C79.60259644 153.30107117 80.26259644 153.30107117 80.94259644 153.30107117 C83.53669448 145.69603346 86.12740004 138.08985218 88.71381283 130.48219776 C89.91496223 126.94949361 91.1172652 123.41719099 92.32223511 119.88578796 C93.48559629 116.47618722 94.64588709 113.06555575 95.80407906 109.65419579 C96.24593042 108.35451466 96.6888767 107.05520523 97.13294792 105.7562809 C97.75592932 103.93342035 98.37461829 102.10909454 98.99313354 100.28471375 C99.5227494 98.72917534 99.5227494 98.72917534 100.06306458 97.14221191 C101.09669986 93.97531296 101.09669986 93.97531296 101.94259644 89.30107117 C87.42259644 89.30107117 72.90259644 89.30107117 57.94259644 89.30107117 Z M132.94259644 89.30107117 C130.96569632 95.20881396 128.98971413 101.11684726 127.01608276 107.02568054 C126.34442443 109.03562743 125.67222764 111.04539447 124.9994812 113.05497742 C124.03248682 115.94382852 123.06743188 118.83332126 122.10275269 121.72294617 C121.80168106 122.62099976 121.50060944 123.51905334 121.19041443 124.44432068 C120.77009193 125.70517487 120.77009193 125.70517487 120.34127808 126.99150085 C120.09479019 127.7287439 119.84830231 128.46598694 119.59434509 129.22557068 C118.96280042 131.23673137 118.43132788 133.2509983 117.94259644 135.30107117 C118.93259644 134.80607117 118.93259644 134.80607117 119.94259644 134.30107117 C119.94259644 133.64107117 119.94259644 132.98107117 119.94259644 132.30107117 C121.42759644 131.80607117 121.42759644 131.80607117 122.94259644 131.30107117 C122.94259644 130.64107117 122.94259644 129.98107117 122.94259644 129.30107117 C123.60259644 129.30107117 124.26259644 129.30107117 124.94259644 129.30107117 C126.51123726 127.75028046 126.51123726 127.75028046 128.13009644 125.73857117 C130.47539402 122.97568437 132.85089048 120.3342736 135.44259644 117.80107117 C138.35800642 114.93051365 141.03784875 111.9287839 143.70040894 108.82450867 C145.59911271 106.68763996 147.53222021 104.60294512 149.49728394 102.52763367 C150.13400024 101.85409851 150.77071655 101.18056335 151.42672729 100.48661804 C152.72032104 99.12204721 154.01796669 97.76130518 155.3197937 96.40458679 C155.91590454 95.77487976 156.51201538 95.14517273 157.12619019 94.49638367 C157.93914551 93.64584412 157.93914551 93.64584412 158.76852417 92.77812195 C160.15001182 91.35460217 160.15001182 91.35460217 159.94259644 89.30107117 C151.03259644 89.30107117 142.12259644 89.30107117 132.94259644 89.30107117 Z M-114.63552856 208.06669617 C-133.39611868 230.40073201 -142.03872955 258.26702502 -140.05740356 287.30107117 C-138.35651048 306.2048566 -133.83778862 323.47415822 -125.05740356 340.30107117 C-124.53871704 341.29735535 -124.53871704 341.29735535 -124.009552 342.31376648 C-119.11054083 351.60469046 -113.65040163 360.09416212 -107.05740356 368.30107117 C-105.94365356 369.70292664 -105.94365356 369.70292664 -104.80740356 371.13310242 C-99.76871751 377.38772139 -94.47801148 383.37705688 -89.05740356 389.30107117 C-88.24916138 390.20212585 -87.44091919 391.10318054 -86.60818481 392.03153992 C-81.17858909 398.04548675 -75.58834172 403.87321311 -69.86990356 409.61357117 C-69.21691284 410.27115417 -68.56392212 410.92873718 -67.8911438 411.60624695 C-64.03933813 415.44592935 -60.07366044 419.09290227 -55.95706177 422.64653015 C-53.15448641 425.08748288 -50.45524227 427.63384532 -47.74490356 430.17607117 C-42.92850555 434.65652262 -37.98887379 438.9106537 -32.85818481 443.03153992 C-29.7754484 445.5295453 -26.76042058 448.09786743 -23.74490356 450.67607117 C-17.51278369 455.98418883 -11.10777069 461.05119448 -4.63943481 466.06718445 C-3.16606152 467.21632467 -1.70495812 468.38114913 -0.24490356 469.54716492 C0.55947144 470.18782898 1.36384644 470.82849304 2.19259644 471.48857117 C2.87837769 472.03900085 3.56415894 472.58943054 4.27072144 473.15653992 C5.87996672 474.48936825 5.87996672 474.48936825 7.94259644 474.30107117 C7.94259644 474.96107117 7.94259644 475.62107117 7.94259644 476.30107117 C9.86801098 477.8271634 11.79417058 479.22697336 13.81759644 480.61357117 C15.12154904 481.52421788 16.42490723 482.43571617 17.72775269 483.34794617 C18.42014038 483.83070007 19.11252808 484.31345398 19.82589722 484.81083679 C22.60783022 486.76942031 25.35111493 488.77860523 28.09689331 490.78739929 C39.18130228 498.88252874 50.50844848 506.62445588 61.91818237 514.25273132 C64.02934465 515.68255466 66.11980187 517.14322038 68.193573 518.62675476 C69.77476929 519.73977966 69.77476929 519.73977966 71.38790894 520.87528992 C72.33424194 521.55551208 73.28057495 522.23573425 74.25558472 522.93656921 C76.83429754 524.53229886 76.83429754 524.53229886 79.58175659 524.13432312 C83.12073414 522.88525069 86.09651597 520.87650246 89.19259644 518.80107117 C89.91713013 518.32331238 90.64166382 517.84555359 91.38815308 517.35331726 C93.91387611 515.68032357 96.42889215 513.99206716 98.94259644 512.30107117 C99.91503296 511.64912781 100.88746948 510.99718445 101.88937378 510.32548523 C114.65941462 501.75036555 127.31591944 493.04078095 139.71408081 483.93534851 C142.13400236 482.16070403 144.5615612 480.39679918 146.98947144 478.63310242 C148.68249081 477.39785154 150.37520652 476.16218433 152.06759644 474.92607117 C152.83765015 474.36702087 153.60770386 473.80797058 154.40109253 473.23197937 C158.84134034 469.97279289 163.04859509 466.55777475 167.14450073 462.87406921 C170.25812687 460.15022764 173.61765316 457.7581479 176.94259644 455.30107117 C184.7376037 449.48136547 192.23347709 443.42880321 199.53512573 436.99833679 C203.9415522 433.12562048 208.46894234 429.47874557 213.18478394 425.98466492 C215.14820398 424.10414483 215.58200435 422.95898381 215.94259644 420.30107117 C216.50333862 420.23275085 217.06408081 420.16443054 217.64181519 420.09403992 C220.85156519 418.98779331 222.42778715 417.06549229 224.75509644 414.61357117 C227.62008688 411.65196081 230.4382126 408.78301701 233.63009644 406.17607117 C236.8046797 403.53428509 239.39973126 400.57034084 242.06759644 397.42607117 C244.05853146 395.16967814 246.16028659 393.08595574 248.31759644 390.98857117 C253.28295081 386.08222779 257.59716398 380.75431584 261.94259644 375.30107117 C262.9113269 374.15058289 262.9113269 374.15058289 263.89962769 372.97685242 C274.18020524 360.64434696 282.25142803 346.85258499 288.94259644 332.30107117 C289.42470581 331.26466492 289.90681519 330.22825867 290.40353394 329.16044617 C301.443073 304.13749094 304.27955219 273.49840017 295.94259644 247.30107117 C295.62113647 246.26635681 295.62113647 246.26635681 295.29318237 245.21073914 C290.92886154 231.5428552 283.95931423 218.71751713 273.94259644 208.30107117 C273.28259644 208.30107117 272.62259644 208.30107117 271.94259644 208.30107117 C271.61259644 207.31107117 271.28259644 206.32107117 270.94259644 205.30107117 C246.8603974 182.39361355 218.63035126 176.4845335 186.39865112 177.16923523 C152.77776689 178.45174989 126.3719435 194.05606765 103.53463745 217.66142273 C101.36183027 219.89920421 99.14809919 222.09556841 96.94259644 224.30107117 C95.83078003 225.4650946 95.83078003 225.4650946 94.69650269 226.65263367 C85.9610895 235.71504093 85.9610895 235.71504093 78.94259644 236.73857117 C72.64563416 235.82026417 68.37718641 230.99430427 64.12619019 226.57450867 C63.02020678 225.44807266 61.91408223 224.32177522 60.80783081 223.19560242 C59.10309028 221.44783621 57.40097611 219.69762222 55.70211792 217.94413757 C30.88905065 192.39368886 1.37914068 177.57694635 -34.70120239 177.0085907 C-65.87858758 176.83551199 -92.83710971 184.68293776 -114.63552856 208.06669617 Z " fill="#FAADA5" transform="translate(432.0574035644531,235.6989288330078)"/>
<path d="M0 0 C0.69294065 -0.00720452 1.38588129 -0.01440903 2.09982014 -0.02183187 C4.43339229 -0.04464254 6.76695377 -0.06015213 9.10058594 -0.07553101 C10.76936607 -0.0899761 12.43814353 -0.10473369 14.10691833 -0.11978149 C29.36021579 -0.25020234 44.61425088 -0.31595394 59.86799622 -0.36762428 C71.14146066 -0.40650798 82.41392389 -0.47480619 93.68694878 -0.58217204 C101.61487666 -0.65512569 109.54253147 -0.69347536 117.47078133 -0.70665014 C122.20448553 -0.7155017 126.93695273 -0.73964082 131.67028809 -0.80131912 C136.12931796 -0.85875996 140.58647936 -0.87318469 145.04582405 -0.85544586 C146.67684352 -0.856321 148.30794211 -0.87245607 149.93862724 -0.90549088 C157.86768701 -1.05769817 163.90133113 -1.03990504 170.16650391 4.50592041 C171.59791732 6.02579576 172.99189764 7.58233412 174.33496094 9.18081665 C174.96681305 9.87334723 175.59866516 10.5658778 176.24966431 11.27939415 C177.81357893 12.99755479 179.29867361 14.76007578 180.77246094 16.55581665 C184.22344632 20.79898901 184.22344632 20.79898901 187.99536133 24.74575806 C189.33496094 26.18081665 189.33496094 26.18081665 189.33496094 28.18081665 C189.99496094 28.18081665 190.65496094 28.18081665 191.33496094 28.18081665 C192.66477186 29.67190899 193.92194824 31.22788379 195.14746094 32.80581665 C199.42709532 38.17443417 203.97645358 43.19072982 208.72875977 48.14419556 C217.6605196 57.56264376 217.6605196 57.56264376 218.96386719 62.6222229 C218.79985497 67.86096616 217.97865692 71.13226556 214.33496094 75.18081665 C212.19433594 75.83706665 212.19433594 75.83706665 210.33496094 76.18081665 C210.87636719 75.41898071 210.87636719 75.41898071 211.42871094 74.64175415 C213.59911517 71.42232121 215.20318386 68.91291155 215.89746094 65.05581665 C214.71062806 58.98978197 209.86385876 54.25450983 205.89746094 49.68081665 C205.37885498 49.07842163 204.86024902 48.47602661 204.32592773 47.8553772 C199.99872947 42.86514571 195.50980552 38.03779132 190.98608398 33.22622681 C187.75490551 29.77011439 184.67852028 26.24402674 181.70996094 22.55581665 C178.44359996 18.51489581 175.13941085 14.52144101 171.70996094 10.61831665 C170.4221875 9.13138306 170.4221875 9.13138306 169.10839844 7.6144104 C164.09397375 3.2144293 158.47053691 2.93080111 152.00135803 2.94030762 C151.2970896 2.93859877 150.59282118 2.93688992 149.86721128 2.93512928 C147.52570728 2.93185548 145.18449484 2.94280289 142.84301758 2.95376587 C141.15727749 2.95433044 139.47153692 2.95401253 137.78579712 2.95288086 C133.22226424 2.95230814 128.65883696 2.96404942 124.09532857 2.97802877 C119.32140596 2.99054955 114.54748081 2.9917077 109.77354431 2.99407959 C100.73914088 3.00029039 91.70478598 3.01669582 82.6704039 3.03677857 C72.38265693 3.05914999 62.09490762 3.07013413 51.80714238 3.08016944 C30.6497215 3.10106239 9.49234428 3.13623061 -11.66503906 3.18081665 C-7.31248313 0.27911269 -5.24019577 0.04527769 0 0 Z " fill="#FBA38F" transform="translate(435.6650390625,235.81918334960938)"/>
<path d="M0 0 C3.57878245 2.92145506 6.89806913 5.76108974 9.8515625 9.31640625 C15.0557364 15.33995482 20.74618428 20.89527843 26.38110352 26.51147461 C28.32881803 28.45377265 30.2710593 30.4014314 32.21289062 32.34960938 C33.45019983 33.58625875 34.68781868 34.82259842 35.92578125 36.05859375 C36.50596512 36.64080185 37.08614899 37.22300995 37.68391418 37.82286072 C40.56824445 40.77271086 40.56824445 40.77271086 44 43 C44 43.66 44 44.32 44 45 C44.55945313 45.23847656 45.11890625 45.47695313 45.6953125 45.72265625 C48.51587137 47.28591515 50.53600635 49.21581151 52.875 51.4375 C57.65129256 55.85763759 62.59790806 59.91568978 67.74243164 63.89672852 C71.50353616 66.81146953 75.17984671 69.7996853 78.8125 72.875 C85.67924316 78.64306426 92.81991812 84.03640052 99.96630859 89.45117188 C101.82638751 90.8677794 103.67576713 92.29663071 105.51953125 93.734375 C111.75537054 98.59520801 118.10443732 103.22227135 124.6328125 107.68359375 C128.39606201 110.25862584 132.10553573 112.90732732 135.8125 115.5625 C136.42988037 116.00464844 137.04726074 116.44679688 137.68334961 116.90234375 C139.12278772 117.93412248 140.56148081 118.96694049 142 120 C140.22875977 120.64086914 140.22875977 120.64086914 138 121 C136.19506836 120.14233398 136.19506836 120.14233398 134.33984375 118.74609375 C133.63819092 118.22829346 132.93653809 117.71049316 132.21362305 117.17700195 C131.46250244 116.60296631 130.71138184 116.02893066 129.9375 115.4375 C129.14964111 114.85121826 128.36178223 114.26493652 127.55004883 113.66088867 C125.87799738 112.41589155 124.20971235 111.16582263 122.54492188 109.91113281 C120.05890548 108.04423562 117.55699829 106.20150836 115.046875 104.3671875 C102.48030195 95.18227926 90.10415932 85.78887708 78 76 C77.41879395 75.53223145 76.83758789 75.06446289 76.23876953 74.58251953 C62.68337717 63.67140996 49.43778443 52.50781599 36.72998047 40.61669922 C34.85678251 38.86616057 32.97758498 37.12221359 31.09765625 35.37890625 C29.77329014 34.14859611 28.44906874 32.91813017 27.125 31.6875 C26.51857666 31.12498535 25.91215332 30.5624707 25.28735352 29.98291016 C19.7844674 24.85372806 14.30513253 19.68350231 9.4375 13.9375 C7.25634589 11.38624056 5.01723802 9.03763144 2.5625 6.75 C0 4 0 4 0 0 Z " fill="#FBA590" transform="translate(316,647)"/>
<path d="M0 0 C3.84377169 3.54554802 6.29808765 6.95730565 8.75 11.5625 C12.57968266 18.52780982 17.04620936 24.77600664 22 31 C23.11568359 32.40572266 23.11568359 32.40572266 24.25390625 33.83984375 C29.29399455 40.08955324 34.58090229 46.07846939 40 52 C40.81984375 52.91265625 41.6396875 53.8253125 42.484375 54.765625 C51.76417913 65.03381064 61.3312568 75.27016878 71.921875 84.203125 C74.22736005 86.19658952 76.44850343 88.26664345 78.67456055 90.34790039 C84.56977596 95.85884763 90.5922225 101.08206693 97 106 C96.505 107.485 96.505 107.485 96 109 C93.28030617 106.77875539 90.56213207 104.55574645 87.84765625 102.328125 C86.21757451 100.99543814 84.58258441 99.66859254 82.93359375 98.359375 C81.58715007 97.28222006 80.28682918 96.14771251 79 95 C79 94.34 79 93.68 79 93 C78.41025391 92.73171387 77.82050781 92.46342773 77.21289062 92.18701172 C74.981337 90.98998902 73.42949733 89.74128247 71.59375 88.0078125 C70.61607666 87.08838867 70.61607666 87.08838867 69.61865234 86.15039062 C68.91949707 85.48201172 68.2203418 84.81363281 67.5 84.125 C66.76604004 83.42826172 66.03208008 82.73152344 65.27587891 82.01367188 C59.23667381 76.24903362 53.28992836 70.39184035 47.375 64.5 C46.54677734 63.6764502 45.71855469 62.85290039 44.86523438 62.00439453 C40.03734022 57.1637541 35.43880845 52.19824243 31 47 C30.07617779 45.94343563 29.15173881 44.8874101 28.2265625 43.83203125 C22.38716667 37.05447423 17.05922155 30.1745493 12.12353516 22.69873047 C10.93149318 20.89642103 9.72146621 19.10687002 8.51171875 17.31640625 C7.69409073 16.08674901 6.87765286 14.85629944 6.0625 13.625 C5.68464355 13.06627197 5.30678711 12.50754395 4.91748047 11.93188477 C2.36542741 8.01295162 1.08561393 4.49023563 0 0 Z " fill="#FCA691" transform="translate(304,573)"/>
<path d="M0 0 C-1.35208967 3.00075879 -2.87560189 5.14318913 -5.16015625 7.50390625 C-5.7850293 8.15705811 -6.40990234 8.81020996 -7.05371094 9.4831543 C-7.71661133 10.16933838 -8.37951172 10.85552246 -9.0625 11.5625 C-22.67361424 24.11722557 -22.67361424 24.11722557 -29.375 40.0625 C-28.99956715 44.00454497 -28.59116625 45.19290323 -26 48 C-26 48.66 -26 49.32 -26 50 C-25.34 50 -24.68 50 -24 50 C-22.66015625 51.328125 -22.66015625 51.328125 -21.0625 53.25 C-17.95431874 56.90973743 -14.75758174 60.4733571 -11.5 64 C-7.92302715 67.88286653 -4.40399502 71.80547785 -0.953125 75.80078125 C0.65873284 77.61573318 2.29435751 79.39629269 3.953125 81.16796875 C4.48494385 81.73717041 5.0167627 82.30637207 5.56469727 82.89282227 C6.61874546 84.01791207 7.67633577 85.13969765 8.73803711 86.25756836 C11.90763859 89.64286659 14.52937975 93.07295205 17 97 C13.60742332 96.43214382 12.25961103 95.54037917 10.125 92.875 C6.5987046 88.64952534 2.89421785 84.63232637 -0.875 80.625 C-8.23193029 72.77573397 -15.44491005 64.81645259 -22.4921875 56.6875 C-23.74991782 55.27988472 -25.08550091 53.94233245 -26.4375 52.625 C-28 51 -28 51 -28 49 C-28.66 49 -29.32 49 -30 49 C-32.63209828 43.84108737 -33.58414427 40.80852897 -32 35 C-29.24750234 30.50612626 -26.06476848 26.53146363 -22.625 22.5625 C-22.11404785 21.97065918 -21.6030957 21.37881836 -21.07666016 20.76904297 C-16.91713268 15.98652461 -12.67205549 11.28414184 -8.375 6.625 C-7.77123535 5.96443604 -7.1674707 5.30387207 -6.54541016 4.62329102 C-2.23657431 0 -2.23657431 0 0 0 Z " fill="#FCA793" transform="translate(402,261)"/>
<path d="M0 0 C0.5775 0.226875 1.155 0.45375 1.75 0.6875 C-9.95053773 9.06036186 -21.80749607 17.1624619 -33.82617188 25.07177734 C-36.06815769 26.56628401 -38.27973279 28.09568027 -40.484375 29.64453125 C-41.11770752 30.07934814 -41.75104004 30.51416504 -42.40356445 30.9621582 C-44.05735511 32.09810665 -45.69915189 33.25146317 -47.33984375 34.40625 C-50.25 35.6875 -50.25 35.6875 -53.0703125 35.28125 C-57.39098832 33.11560414 -61.24761892 30.47630606 -65.1875 27.6875 C-66.86907606 26.51329744 -68.55137806 25.34013385 -70.234375 24.16796875 C-71.07162109 23.58321777 -71.90886719 22.9984668 -72.77148438 22.39599609 C-75.10329732 20.78862543 -77.45580341 19.22256399 -79.828125 17.67578125 C-80.52429932 17.22138672 -81.22047363 16.76699219 -81.93774414 16.29882812 C-83.24872416 15.44735533 -84.56292161 14.60081144 -85.88061523 13.75976562 C-87.37148126 12.78644338 -88.81668416 11.74374022 -90.25 10.6875 C-90.25 10.0275 -90.25 9.3675 -90.25 8.6875 C-86.8426178 9.32347353 -84.54510058 10.62946385 -81.6875 12.56640625 C-80.37652344 13.44897095 -80.37652344 13.44897095 -79.0390625 14.34936523 C-78.11867188 14.97657471 -77.19828125 15.60378418 -76.25 16.25 C-75.30898438 16.88172119 -74.36796875 17.51344238 -73.3984375 18.16430664 C-69.36056635 20.87812035 -65.33818997 23.6077415 -61.375 26.4296875 C-59.828125 27.51636719 -59.828125 27.51636719 -58.25 28.625 C-57.38375 29.25277344 -56.5175 29.88054688 -55.625 30.52734375 C-53.33715562 31.86521237 -53.33715562 31.86521237 -50.890625 31.66015625 C-47.26146605 30.32338025 -44.19291353 28.32760673 -41 26.1875 C-40.28561768 25.71699219 -39.57123535 25.24648438 -38.83520508 24.76171875 C-36.29831932 23.08268241 -33.77311124 21.38716721 -31.25 19.6875 C-30.20312012 18.98238281 -29.15624023 18.27726563 -28.07763672 17.55078125 C-15.77823077 9.66996969 -15.77823077 9.66996969 -4.17114258 0.8984375 C-2.25 -0.3125 -2.25 -0.3125 0 0 Z " fill="#FCA691" transform="translate(562.25,727.3125)"/>
<path d="M0 0 C6.29826543 -0.20327022 12.59568253 -0.34311059 18.89648438 -0.43945312 C21.03840744 -0.47962228 23.18011198 -0.53417106 25.32128906 -0.60351562 C28.404845 -0.70086094 31.48549764 -0.74599031 34.5703125 -0.78125 C36.00034103 -0.84318542 36.00034103 -0.84318542 37.45925903 -0.90637207 C44.01688584 -0.91077242 44.01688584 -0.91077242 46.97991943 1.83422852 C48.48654339 3.82986038 49.79741233 5.80986487 51 8 C49.68 7.67 48.36 7.34 47 7 C47 6.34 47 5.68 47 5 C46.34 5 45.68 5 45 5 C45 4.34 45 3.68 45 3 C31.14 3 17.28 3 3 3 C8.24742654 12.86201404 8.24742654 12.86201404 13.5625 22.6875 C15.06107658 26.14074168 15.09708134 26.66516333 14 30 C10.53748079 24.80622119 7.57921932 19.43166815 4.75 13.875 C4.39679687 13.194375 4.04359375 12.51375 3.6796875 11.8125 C3.34710937 11.14992188 3.01453125 10.48734375 2.671875 9.8046875 C2.3737793 9.21671387 2.07568359 8.62874023 1.76855469 8.02294922 C0.7697407 5.39392358 0.39755931 2.77653459 0 0 Z " fill="#FBB0A0" transform="translate(544,264)"/>
<path d="M0 0 C5.54389264 1.32509062 9.83492089 3.37735209 14.625 6.4375 C15.31795166 6.87634521 16.01090332 7.31519043 16.72485352 7.76733398 C27.25673078 14.59428823 36.30617497 22.97741688 45 32 C45.9075 32.9075 46.815 33.815 47.75 34.75 C49.30211829 36.30211829 50.84316827 37.86535691 52.375 39.4375 C53.24125 40.283125 54.1075 41.12875 55 42 C55.804375 42.79857422 55.804375 42.79857422 56.625 43.61328125 C60.57534066 47.30790789 63.36608665 49 69 49 C71.79571502 48.04357118 72.67649489 47.64701022 74 45 C74.66 45.33 75.32 45.66 76 46 C75 49 75 49 72.3125 50.6875 C68.7591299 52.0954391 66.77071099 52.54989535 63 52 C58.45277768 49.3118435 54.82290642 46.05726069 51.18359375 42.2734375 C50.07761034 41.14700149 48.97148579 40.02070405 47.86523438 38.89453125 C46.16049384 37.14676504 44.45837968 35.39655106 42.75952148 33.64306641 C31.49603523 22.0448579 19.19940775 10.38011444 3.9375 4.3125 C2.968125 3.879375 1.99875 3.44625 1 3 C0.67 2.01 0.34 1.02 0 0 Z " fill="#FBA795" transform="translate(445,421)"/>
<path d="M0 0 C14.55581419 2.19576759 29.71721361 21.28872665 37.91210938 32.3034668 C55.60222884 57.05207984 55.60222884 57.05207984 55 70 C52.73463586 67.73463586 51.96711087 65.54974336 50.84472656 62.59277344 C44.9342078 47.07509932 36.13853109 34.22191406 25 22 C24.35804688 21.27554687 23.71609375 20.55109375 23.0546875 19.8046875 C16.74858586 13.0617996 8.28156775 6.14078387 0 2 C0 1.34 0 0.68 0 0 Z " fill="#FCA792" transform="translate(705,398)"/>
<path d="M0 0 C0.5259375 0.25265625 1.051875 0.5053125 1.59375 0.765625 C0.541875 1.52746094 0.541875 1.52746094 -0.53125 2.3046875 C-3.49305194 4.45360358 -6.44993815 6.6091641 -9.40625 8.765625 C-10.13070312 9.28898437 -10.85515625 9.81234375 -11.6015625 10.3515625 C-20.67202185 16.522489 -20.67202185 16.522489 -27.40625 24.765625 C-28.06625 24.765625 -28.72625 24.765625 -29.40625 24.765625 C-29.66148437 25.33410156 -29.91671875 25.90257812 -30.1796875 26.48828125 C-31.54737634 29.02765257 -33.16797854 31.00208919 -35.03125 33.203125 C-39.79412693 39.05044567 -43.57511672 45.284129 -47.40625 51.765625 C-48.40558644 53.43268962 -49.40534435 55.09950206 -50.40625 56.765625 C-51.0859375 55.109375 -51.0859375 55.109375 -51.40625 52.765625 C-47.62348862 43.9832699 -41.23434836 36.26534847 -35.40625 28.765625 C-34.86484375 27.9921875 -34.3234375 27.21875 -33.765625 26.421875 C-33.09273438 25.60203125 -33.09273438 25.60203125 -32.40625 24.765625 C-31.74625 24.765625 -31.08625 24.765625 -30.40625 24.765625 C-30.18453125 24.21132813 -29.9628125 23.65703125 -29.734375 23.0859375 C-25.31814064 15.3705163 -16.00514381 9.23760579 -8.90625 4.015625 C-8.02598145 3.35216064 -8.02598145 3.35216064 -7.12792969 2.67529297 C-2.97387181 -0.28966284 -2.97387181 -0.28966284 0 0 Z " fill="#FCA791" transform="translate(322.40625,395.234375)"/>
<path d="M0 0 C1.34160439 -0.00472824 1.34160439 -0.00472824 2.71031189 -0.009552 C4.1696389 -0.00651566 4.1696389 -0.00651566 5.65844727 -0.00341797 C7.14744286 -0.00485306 7.14744286 -0.00485306 8.66651917 -0.00631714 C10.77068139 -0.00699913 12.8748457 -0.00514353 14.97900391 -0.00097656 C18.20748611 0.00436579 21.43582883 -0.00091802 24.66430664 -0.00732422 C26.70402049 -0.00666333 28.74373425 -0.00538194 30.78344727 -0.00341797 C31.75430771 -0.0054422 32.72516815 -0.00746643 33.72544861 -0.009552 C34.62300369 -0.00639984 35.52055878 -0.00324768 36.4453125 0 C37.23727524 0.00079559 38.02923798 0.00159119 38.84519958 0.00241089 C40.78735352 0.12939453 40.78735352 0.12939453 42.78735352 1.12939453 C43.15658428 6.54477915 43.15658428 6.54477915 41.28735352 9.50439453 C40.79235352 10.04064453 40.29735352 10.57689453 39.78735352 11.12939453 C39.78735352 8.81939453 39.78735352 6.50939453 39.78735352 4.12939453 C25.59735352 3.79939453 11.40735352 3.46939453 -3.21264648 3.12939453 C-3.54264648 4.44939453 -3.87264648 5.76939453 -4.21264648 7.12939453 C-4.59397947 5.13798893 -4.92590231 3.13660376 -5.21264648 1.12939453 C-3.65598769 -0.42726427 -2.16412939 0.00217624 0 0 Z " fill="#FCA493" transform="translate(493.212646484375,321.87060546875)"/>
<path d="M0 0 C0.99 0.33 1.98 0.66 3 1 C-5.15972854 7.91004038 -13.4745085 14.5489138 -22 21 C-22.98871094 21.75152344 -23.97742188 22.50304687 -24.99609375 23.27734375 C-32.56306846 28.99528347 -40.26215414 34.5171181 -48 40 C-48.66 39.67 -49.32 39.34 -50 39 C-45.72580585 34.39635478 -40.89831938 30.85211348 -35.8125 27.1875 C-24.44993155 19.14738983 -24.44993155 19.14738983 -14 10 C-11.38096514 7.9354455 -8.69100996 5.96939835 -6 4 C-5.42121094 3.56558594 -4.84242188 3.13117187 -4.24609375 2.68359375 C-2.6875 1.5625 -2.6875 1.5625 0 0 Z " fill="#FCA591" transform="translate(615,686)"/>
<path d="M0 0 C-1.24088379 -0.00523682 -2.48176758 -0.01047363 -3.76025391 -0.01586914 C-8.37841059 -0.03401386 -12.99656414 -0.0454666 -17.61474609 -0.05493164 C-19.61084524 -0.05995022 -21.60694073 -0.06676651 -23.60302734 -0.07543945 C-26.47754826 -0.08761356 -29.35202044 -0.09325316 -32.2265625 -0.09765625 C-33.11429352 -0.10281754 -34.00202454 -0.10797882 -34.91665649 -0.11329651 C-39.4046367 -0.11369986 -43.57716083 0.13700699 -48 1 C-49.79067806 1.06305204 -51.58337579 1.08671114 -53.375 1.0625 C-54.68597656 1.04896484 -54.68597656 1.04896484 -56.0234375 1.03515625 C-57.00183594 1.01775391 -57.00183594 1.01775391 -58 1 C-44.94150132 -7.70566579 -13.53792915 -7.11247506 0 0 Z " fill="#FCA899" transform="translate(421,414)"/>
<path d="M0 0 C6.85681877 4.11409126 12.03336336 9.71987141 17.24609375 15.72265625 C21.09860911 20.14741899 25.09473375 24.4248649 29.125 28.6875 C29.81464844 29.42033203 30.50429688 30.15316406 31.21484375 30.90820312 C34.08001881 33.94594609 36.94431794 36.96686514 39.94140625 39.875 C42.00145294 42.00149981 42.67749268 43.09743415 43 46 C39.6992076 44.89973587 39.07519718 44.17290663 36.9375 41.5625 C34.09943218 38.20841985 31.13075656 35.08310425 28 32 C24.54643164 28.58262173 21.27832901 25.10598488 18.12890625 21.41015625 C16.29706541 19.33631075 14.42844127 17.3184693 12.52734375 15.30859375 C11.89795898 14.64239014 11.26857422 13.97618652 10.62011719 13.28979492 C9.3498525 11.94908478 8.07586392 10.61189129 6.79785156 9.27856445 C5.91371582 8.34403442 5.91371582 8.34403442 5.01171875 7.390625 C4.48022217 6.83407227 3.94872559 6.27751953 3.40112305 5.70410156 C1.9192982 3.90184726 0.96190859 2.11880257 0 0 Z " fill="#FCA794" transform="translate(426,324)"/>
<path d="M0 0 C0.99 0.33 1.98 0.66 3 1 C-3.9172081 13.0698223 -11.53081014 23.88346468 -20.66235352 34.38452148 C-22.18934501 36.17199456 -22.18934501 36.17199456 -24 39 C-24.66 39 -25.32 39 -26 39 C-26.2475 39.598125 -26.495 40.19625 -26.75 40.8125 C-28.16370012 43.28647521 -29.65055383 44.43370255 -32 46 C-31.41474185 42.88228548 -30.54784808 41.14950967 -28.41015625 38.8203125 C-27.61194458 37.93255127 -27.61194458 37.93255127 -26.79760742 37.02685547 C-26.22502197 36.39924316 -25.65243652 35.77163086 -25.0625 35.125 C-15.38308539 24.22817449 -7.44024599 12.51125164 0 0 Z " fill="#FCA792" transform="translate(713,582)"/>
<path d="M0 0 C4.09341499 -0.02469575 8.18680121 -0.04285793 12.28027344 -0.05493164 C13.67318477 -0.0599643 15.0660908 -0.06679098 16.45898438 -0.07543945 C18.45961246 -0.08755152 20.46027888 -0.09270412 22.4609375 -0.09765625 C23.66540527 -0.10289307 24.86987305 -0.10812988 26.11083984 -0.11352539 C29 0 29 0 31 1 C30.4234559 4.40013186 29.39002339 5.92670485 26.875 8.25 C24.21251963 10.78699461 21.75573583 13.38387031 19.375 16.1875 C16.81133583 19.16783193 14.19420247 21.67694366 11 24 C11.58872484 20.61506467 12.69552223 18.90263703 15.0546875 16.43359375 C15.66957031 15.78326172 16.28445313 15.13292969 16.91796875 14.46289062 C17.56378906 13.79451172 18.20960938 13.12613281 18.875 12.4375 C19.51308594 11.76525391 20.15117188 11.09300781 20.80859375 10.40039062 C23.50622163 7.56478387 26.23231755 4.76768245 29 2 C19.43 2 9.86 2 0 2 C0 1.34 0 0.68 0 0 Z " fill="#FCA18E" transform="translate(565,322)"/>
<path d="M0 0 C1 3 1 3 1 5 C16.84 5.33 32.68 5.66 49 6 C47 8 47 8 44.86129761 8.24050903 C43.9774942 8.23606781 43.0936908 8.23162659 42.18310547 8.22705078 C41.18221893 8.22689972 40.1813324 8.22674866 39.15011597 8.22659302 C37.52506638 8.21110916 37.52506638 8.21110916 35.8671875 8.1953125 C34.76021515 8.1924826 33.6532428 8.18965271 32.51272583 8.18673706 C28.96670863 8.17551519 25.42094125 8.15040691 21.875 8.125 C19.47526406 8.1149728 17.07552417 8.1058465 14.67578125 8.09765625 C8.78376849 8.07556932 2.89190209 8.04207207 -3 8 C-3.62109375 6.140625 -3.62109375 6.140625 -4 4 C-2.0625 1.75 -2.0625 1.75 0 0 Z " fill="#FB9F8C" transform="translate(413,289)"/>
<path d="M0 0 C1.67455652 3.34911305 0.28238437 6.93628475 -0.375 10.5 C-2.382659 21.5421245 -3.18116143 32.40989504 -3.5625 43.625 C-3.60568359 44.81996094 -3.64886719 46.01492188 -3.69335938 47.24609375 C-3.79840307 50.16397406 -3.90055648 53.08192438 -4 56 C-4.33 56 -4.66 56 -5 56 C-8.03142432 42.64661369 -7.03736283 26.31624316 -4 13 C-3.62101562 11.31583984 -3.62101562 11.31583984 -3.234375 9.59765625 C-1.24645865 1.24645865 -1.24645865 1.24645865 0 0 Z " fill="#FCA18D" transform="translate(296,477)"/>
<path d="M0 0 C0.66 0.33 1.32 0.66 2 1 C1.23816406 1.84820312 0.47632813 2.69640625 -0.30859375 3.5703125 C-9.93930938 14.44754027 -17.6714597 25.53360397 -23.80859375 38.76953125 C-25 41 -25 41 -27 42 C-22.59175537 25.31616507 -12.48912381 11.65651555 0 0 Z " fill="#FCA792" transform="translate(324,434)"/>
<path d="M0 0 C1.20076172 -0.01224609 2.40152344 -0.02449219 3.63867188 -0.03710938 C5.37407227 -0.04000977 5.37407227 -0.04000977 7.14453125 -0.04296875 C8.18585205 -0.04707764 9.22717285 -0.05118652 10.30004883 -0.05541992 C13.29309893 0.19638399 15.47655928 0.92854824 18.1875 2.1875 C18.1875 2.5175 18.1875 2.8475 18.1875 3.1875 C17.41672119 3.18226318 16.64594238 3.17702637 15.85180664 3.17163086 C12.31787958 3.15068553 8.78396564 3.13778437 5.25 3.125 C4.03763672 3.11662109 2.82527344 3.10824219 1.57617188 3.09960938 C-4.32209092 3.08362492 -10.06939918 3.1987415 -15.91967773 3.96264648 C-18.57713653 4.27833326 -21.20164482 4.28383994 -23.875 4.25 C-24.81472656 4.24097656 -25.75445313 4.23195313 -26.72265625 4.22265625 C-27.41230469 4.21105469 -28.10195313 4.19945312 -28.8125 4.1875 C-20.51373626 -1.34500916 -9.64968466 0.00526442 0 0 Z " fill="#FDA897" transform="translate(633.8125,376.8125)"/>
<path d="M0 0 C5.8713824 -0.19822873 11.74080608 -0.34314324 17.61474609 -0.43945312 C19.61118505 -0.47960859 21.60738983 -0.53414767 23.60302734 -0.60351562 C26.47812639 -0.70092805 29.35011073 -0.7460019 32.2265625 -0.78125 C33.11429352 -0.82254028 34.00202454 -0.86383057 34.91665649 -0.90637207 C38.774047 -0.90914548 41.05826725 -0.89055516 43.93963623 1.83422852 C45.44645822 3.83099741 46.77442849 5.82115473 48 8 C46.68 7.67 45.36 7.34 44 7 C44 6.34 44 5.68 44 5 C43.34 5 42.68 5 42 5 C41.505 4.01 41.505 4.01 41 3 C20.705 2.505 20.705 2.505 0 2 C0 1.34 0 0.68 0 0 Z " fill="#FA9A84" transform="translate(547,264)"/>
<path d="M0 0 C0.66 0.33 1.32 0.66 2 1 C-1.53238812 4.72129249 -5.23356079 7.77837123 -9.47265625 10.6796875 C-10.07758408 11.09670929 -10.6825119 11.51373108 -11.30577087 11.94338989 C-12.57530107 12.81511464 -13.84686452 13.68388506 -15.12036133 14.54980469 C-17.06931316 15.87964888 -19.00423764 17.22839607 -20.93945312 18.578125 C-22.17887541 19.42566796 -23.41908313 20.27206373 -24.66015625 21.1171875 C-25.23629166 21.52226532 -25.81242706 21.92734314 -26.40602112 22.34469604 C-30.45862987 25.05813593 -30.45862987 25.05813593 -33.39624023 24.74267578 C-33.92548096 24.49759277 -34.45472168 24.25250977 -35 24 C-26.3395999 18.01396787 -17.66136555 12.06198715 -8.87475586 6.26220703 C-5.84691771 4.25816425 -2.87425594 2.21972241 0 0 Z " fill="#FBA48D" transform="translate(579,756)"/>
<path d="M0 0 C3.74152107 0.52445253 5.7250919 1.25655523 8.4375 3.875 C12.15683483 7.29791725 16.01963038 10.45272096 20 13.5625 C20.60529541 14.03727783 21.21059082 14.51205566 21.83422852 15.0012207 C25.13918069 17.5830043 28.48084845 20.09841845 31.875 22.5625 C32.90625 23.366875 33.9375 24.17125 35 25 C35 25.66 35 26.32 35 27 C30.68996782 26.4731012 27.81598357 23.76491558 24.5625 21.125 C23.9535791 20.63829834 23.3446582 20.15159668 22.71728516 19.65014648 C6.13089191 6.32156558 6.13089191 6.32156558 0 0 Z " fill="#FCA591" transform="translate(402,683)"/>
<path d="M0 0 C0 0.33 0 0.66 0 1 C-14.52 1 -29.04 1 -44 1 C-31.71059398 -5.14470301 -13.09219362 -2.59068142 0 0 Z " fill="#FDA696" transform="translate(650,412)"/>
<path d="M0 0 C0.33 0 0.66 0 1 0 C1.02749766 1.37488287 1.0466164 2.74993391 1.0625 4.125 C1.07410156 4.89070313 1.08570313 5.65640625 1.09765625 6.4453125 C1 9 1 9 0.5 11.671875 C-0.06085286 15.40505185 -0.12577046 19.04144309 -0.09765625 22.8046875 C-0.0962413 23.5286673 -0.09482635 24.25264709 -0.09336853 24.99856567 C-0.08781075 27.29075407 -0.07526633 29.58284157 -0.0625 31.875 C-0.05747953 33.43749858 -0.05291759 34.99999871 -0.04882812 36.5625 C-0.03785519 40.37503835 -0.0206201 44.18750212 0 48 C-3.8938908 42.1591638 -3.22068797 36.42984536 -3.24023438 29.61547852 C-3.24981709 27.60095299 -3.28094952 25.58656687 -3.3125 23.57226562 C-3.34541078 15.26640871 -2.47346669 7.93803733 0 0 Z " fill="#FCA591" transform="translate(259,487)"/>
<path d="M0 0 C4.64467639 -0.12359943 9.28839626 -0.21433399 13.93432617 -0.2746582 C15.51457389 -0.2998033 17.09470529 -0.33392474 18.67456055 -0.37719727 C20.94609232 -0.43785708 23.21608744 -0.46620678 25.48828125 -0.48828125 C26.54780754 -0.52699089 26.54780754 -0.52699089 27.6287384 -0.56648254 C29.63012695 -0.56762695 29.63012695 -0.56762695 33 0 C35.57065693 3.15371924 36.38774718 5.79581221 36.6875 9.8125 C36.78611328 10.99779297 36.78611328 10.99779297 36.88671875 12.20703125 C36.94279297 13.09455078 36.94279297 13.09455078 37 14 C36.505 13.01 36.505 13.01 36 12 C35.34 12 34.68 12 34 12 C32.68373308 8.38026598 32 5.90432869 32 2 C21.77 2 11.54 2 1 2 C0.67 1.34 0.34 0.68 0 0 Z " fill="#FCA08D" transform="translate(427,322)"/>
<path d="M0 0 C-1.20043028 3.60129084 -2.13613946 4.02550355 -5.26171875 6.03125 C-6.13376953 6.59457031 -7.00582031 7.15789063 -7.90429688 7.73828125 C-9.28198242 8.61033203 -9.28198242 8.61033203 -10.6875 9.5 C-12.03618164 10.37205078 -12.03618164 10.37205078 -13.41210938 11.26171875 C-26.17629744 19.44653193 -26.17629744 19.44653193 -31.875 19.1875 C-33.04675781 19.14689453 -33.04675781 19.14689453 -34.2421875 19.10546875 C-34.82226562 19.07066406 -35.40234375 19.03585937 -36 19 C-36.33 18.01 -36.66 17.02 -37 16 C-35.80375 16.165 -34.6075 16.33 -33.375 16.5 C-23.52020154 16.51551937 -13.52475006 7.89630012 -5.890625 2.34765625 C-2.59710145 0 -2.59710145 0 0 0 Z " fill="#FBA690" transform="translate(543,782)"/>
<path d="M0 0 C5.21532298 10.43064596 3.89427331 25.74158316 2 37 C1.34 37.99 0.68 38.98 0 40 C0 26.8 0 13.6 0 0 Z " fill="#FCA590" transform="translate(732,496)"/>
<path d="M0 0 C0.33 0.99 0.66 1.98 1 3 C-0.33687557 5.13102871 -1.6782021 6.99050982 -3.25 8.9375 C-3.92095703 9.78997314 -3.92095703 9.78997314 -4.60546875 10.65966797 C-8.74482229 15.84389295 -13.19894665 20.71671561 -17.75 25.5390625 C-20.09721364 27.98109185 -20.09721364 27.98109185 -22 31 C-22.99 30.67 -23.98 30.34 -25 30 C-24.45472656 29.40574219 -23.90945313 28.81148437 -23.34765625 28.19921875 C-15.11581739 19.15123177 -7.4481734 9.6993898 0 0 Z " fill="#FCA58D" transform="translate(723,628)"/>
<path d="M0 0 C2.0625 1.6875 2.0625 1.6875 4 4 C3.67 5.65 3.34 7.3 3 9 C-8.22 9 -19.44 9 -31 9 C-30.67 8.34 -30.34 7.68 -30 7 C-19.44 6.67 -8.88 6.34 2 6 C2 5.34 2 4.68 2 4 C1.34 4 0.68 4 0 4 C0 2.68 0 1.36 0 0 Z " fill="#FB9E8B" transform="translate(525,288)"/>
<path d="M0 0 C4.0722085 2.25572061 7.37130506 4.93455976 10.8125 8.0625 C12.27623047 9.37927734 12.27623047 9.37927734 13.76953125 10.72265625 C16 13 16 13 16 15 C16.66 15 17.32 15 18 15 C19.7265625 17.1875 19.7265625 17.1875 21.625 20 C22.25664063 20.928125 22.88828125 21.85625 23.5390625 22.8125 C24.02117188 23.534375 24.50328125 24.25625 25 25 C24.67 25.66 24.34 26.32 24 27 C20.11807874 23.23225289 16.20468119 19.37202211 13 15 C13 14.34 13 13.68 13 13 C12.34 13 11.68 13 11 13 C9.31002677 11.35697047 7.64783606 9.68528688 6 8 C4.90367178 7.11519863 3.79956506 6.23993949 2.6875 5.375 C1.800625 4.59125 0.91375 3.8075 0 3 C0 2.01 0 1.02 0 0 Z " fill="#FCA692" transform="translate(693,431)"/>
<path d="M0 0 C0.89267578 0.00966797 1.78535156 0.01933594 2.70507812 0.02929688 C4.09823242 0.06700195 4.09823242 0.06700195 5.51953125 0.10546875 C6.45990234 0.11900391 7.40027344 0.13253906 8.36914062 0.14648438 C10.69068163 0.18183779 13.01106778 0.23118201 15.33203125 0.29296875 C15.33203125 0.95296875 15.33203125 1.61296875 15.33203125 2.29296875 C13.81222656 2.36644531 13.81222656 2.36644531 12.26171875 2.44140625 C10.91013214 2.51649439 9.55857087 2.59203956 8.20703125 2.66796875 C7.541875 2.69890625 6.87671875 2.72984375 6.19140625 2.76171875 C-0.18005771 3.13651075 -5.02586053 4.04674961 -9.48046875 8.79296875 C-10.06441406 9.40140625 -10.64835937 10.00984375 -11.25 10.63671875 C-12.74782785 12.25104527 -12.74782785 12.25104527 -13.66796875 14.29296875 C-14.65796875 13.96296875 -15.64796875 13.63296875 -16.66796875 13.29296875 C-15.23151024 11.68786941 -13.79376169 10.08392451 -12.35546875 8.48046875 C-11.55496094 7.58714844 -10.75445312 6.69382812 -9.9296875 5.7734375 C-8.81013672 4.54560547 -8.81013672 4.54560547 -7.66796875 3.29296875 C-7.22259766 2.75285156 -6.77722656 2.21273438 -6.31835938 1.65625 C-4.1203934 -0.15934793 -2.82293128 -0.05394136 0 0 Z " fill="#FBA38D" transform="translate(440.66796875,263.70703125)"/>
<path d="M0 0 C5.12478946 4.09983157 9.53808973 8.65617797 13.92626953 13.51757812 C17.50159633 17.47664093 21.18655144 21.27129474 25 25 C24.34 25.66 23.68 26.32 23 27 C22.67 26.01 22.34 25.02 22 24 C21.41863281 23.87753906 20.83726562 23.75507813 20.23828125 23.62890625 C16.88018352 22.68535697 15.45773624 20.53665235 13.1875 17.9375 C12.7531665 17.44306396 12.31883301 16.94862793 11.87133789 16.43920898 C10.57643181 14.96337409 9.28813407 13.48174931 8 12 C7.28328125 11.21882813 6.5665625 10.43765625 5.828125 9.6328125 C5.20421875 8.94960938 4.5803125 8.26640625 3.9375 7.5625 C3.38964844 6.96566406 2.84179688 6.36882812 2.27734375 5.75390625 C0.88231088 3.8384024 0.41232309 2.31613588 0 0 Z " fill="#FBA997" transform="translate(420,359)"/>
<path d="M0 0 C0 3 0 3 -1.94140625 5.19921875 C-2.80636719 6.02035156 -3.67132812 6.84148437 -4.5625 7.6875 C-8.39558342 11.40147631 -11.99233051 15.18609347 -15.4609375 19.23828125 C-17.53424056 21.61152916 -19.73833739 23.80687262 -22 26 C-23.32 25.34 -24.64 24.68 -26 24 C-25.4225 23.773125 -24.845 23.54625 -24.25 23.3125 C-21.44661024 21.67718931 -19.99557846 19.52773272 -18 17 C-17.34 17 -16.68 17 -16 17 C-15.78214844 16.45601563 -15.56429687 15.91203125 -15.33984375 15.3515625 C-13.55205391 12.2138089 -11.12568015 9.87468546 -8.5625 7.375 C-8.07201172 6.88515625 -7.58152344 6.3953125 -7.07617188 5.890625 C-4.81112438 3.6530882 -2.65832501 1.77221668 0 0 Z " fill="#FCA692" transform="translate(573,348)"/>
<path d="M0 0 C3.54651804 3.40316142 6.54479916 6.9046263 9.4375 10.875 C12.03870727 14.40707408 14.65240856 17.8425272 17.5625 21.125 C20 24 20 24 20 26 C11.99201201 22.91858527 3.90898216 10.48427072 0 3 C0 2.01 0 1.02 0 0 Z " fill="#FBA48D" transform="translate(293,618)"/>
<path d="M0 0 C2 2 2 2 2.24291992 3.9519043 C2.23881104 4.73476807 2.23470215 5.51763184 2.23046875 6.32421875 C2.22853516 7.18853516 2.22660156 8.05285156 2.22460938 8.94335938 C2.21236328 9.84892578 2.20011719 10.75449219 2.1875 11.6875 C2.18685547 12.57373047 2.18621094 13.45996094 2.18554688 14.37304688 C2.09716925 27.63951013 2.09716925 27.63951013 -0.5625 30.9375 C-1.036875 31.288125 -1.51125 31.63875 -2 32 C-1.93941406 31.19820312 -1.87882813 30.39640625 -1.81640625 29.5703125 C-1.09041742 19.71920251 -0.52560833 9.86354348 0 0 Z " fill="#FCA28E" transform="translate(766,510)"/>
<path d="M0 0 C0.83987244 2.36628372 1.16505875 3.56535435 0.2590332 5.95117188 C-0.13968994 6.61697266 -0.53841309 7.28277344 -0.94921875 7.96875 C-1.38556641 8.70480469 -1.82191406 9.44085937 -2.27148438 10.19921875 C-2.97241211 11.33810547 -2.97241211 11.33810547 -3.6875 12.5 C-4.13544922 13.25925781 -4.58339844 14.01851562 -5.04492188 14.80078125 C-7.36112209 18.65100053 -9.59437804 22.0011385 -13 25 C-13.33 24.34 -13.66 23.68 -14 23 C-13.04370117 20.98461914 -13.04370117 20.98461914 -11.54296875 18.53515625 C-11.00736328 17.65279297 -10.47175781 16.77042969 -9.91992188 15.86132812 C-9.34822266 14.93771484 -8.77652344 14.01410156 -8.1875 13.0625 C-7.62740234 12.14275391 -7.06730469 11.22300781 -6.49023438 10.27539062 C-4.3764293 6.81299306 -2.25040539 3.37560808 0 0 Z " fill="#FCA58D" transform="translate(748,589)"/>
<path d="M0 0 C0.99 0.33 1.98 0.66 3 1 C-10.85035017 15.10578695 -10.85035017 15.10578695 -15 18 C-15.99 18 -16.98 18 -18 18 C-16.71520959 16.49410612 -15.42195918 14.99542625 -14.125 13.5 C-13.40570312 12.6646875 -12.68640625 11.829375 -11.9453125 10.96875 C-11.30335938 10.3190625 -10.66140625 9.669375 -10 9 C-9.34 9 -8.68 9 -8 9 C-7.938125 8.401875 -7.87625 7.80375 -7.8125 7.1875 C-6.67199005 4.11689628 -4.82187415 3.51417637 -2 2 C-1.34 1.34 -0.68 0.68 0 0 Z " fill="#FBA692" transform="translate(655,651)"/>
<path d="M0 0 C5.03382098 1.6481544 9.0260491 4.60648051 13.3125 7.625 C14.05306641 8.140625 14.79363281 8.65625 15.55664062 9.1875 C17.37422697 10.45394726 19.18850838 11.72485759 21 13 C19.17749023 13.59228516 19.17749023 13.59228516 17 14 C14.16015625 12.5234375 14.16015625 12.5234375 11.0625 10.375 C10.04285156 9.68148437 9.02320313 8.98796875 7.97265625 8.2734375 C5.04647537 6.03554358 2.50229453 3.70045045 0 1 C0 0.67 0 0.34 0 0 Z " fill="#FBA591" transform="translate(461,770)"/>
<path d="M0 0 C-1.58189234 4.53045356 -5.156152 6.85617411 -8.8125 9.6875 C-9.42931641 10.18572266 -10.04613281 10.68394531 -10.68164062 11.19726562 C-14.04932831 13.83487011 -16.59673468 15.6393516 -21 16 C-17.34729729 12.11163905 -13.3940306 8.88087107 -9.15234375 5.6484375 C-7.42507191 4.32555417 -5.73680316 2.95181538 -4.0625 1.5625 C-2 0 -2 0 0 0 Z " fill="#FBA38C" transform="translate(637,714)"/>
<path d="M0 0 C9.17460773 0.04317462 16.74170894 3.3993851 25 7 C25 7.33 25 7.66 25 8 C19.42722713 7.65880982 14.41341747 6.31183805 9.125 4.5625 C8.45847412 4.34505127 7.79194824 4.12760254 7.10522461 3.90356445 C4.18602948 2.91059778 2.2086661 2.2086661 0 0 Z " fill="#FDA592" transform="translate(651,413)"/>
<path d="M0 0 C1.32 0.33 2.64 0.66 4 1 C2.9375 2.0625 1.875 3.125 0.8125 4.1875 C0.17183594 4.82945312 -0.46882813 5.47140625 -1.12890625 6.1328125 C-2.61813133 7.61892855 -4.11951413 9.09285903 -5.625 10.5625 C-8.25575713 13.26248758 -10.62096179 16.07718162 -13 19 C-13.33 18.01 -13.66 17.02 -14 16 C-13.24074219 15.18015625 -12.48148437 14.3603125 -11.69921875 13.515625 C-10.69521546 12.42717284 -9.6913146 11.33862618 -8.6875 10.25 C-8.18798828 9.71117187 -7.68847656 9.17234375 -7.17382812 8.6171875 C-4.62043007 5.84396048 -2.18903551 3.07809771 0 0 Z " fill="#FCA791" transform="translate(418,240)"/>
<path d="M0 0 C-3.41218391 3.02246748 -7.04695654 4.09270948 -11.375 5.1875 C-12.02210938 5.36474609 -12.66921875 5.54199219 -13.3359375 5.72460938 C-17.30921833 6.76198814 -20.90101693 7.18401008 -25 7 C-22.22667307 4.22667307 -18.97114337 3.50987224 -15.3125 2.375 C-14.61705078 2.14554687 -13.92160156 1.91609375 -13.20507812 1.6796875 C-8.63188434 0.24496004 -4.78954946 -0.23853588 0 0 Z " fill="#FCA999" transform="translate(605,413)"/>
<path d="M0 0 C7.00879817 2.33626606 11.78034393 11.18831252 16 17 C15.01 17.33 14.02 17.66 13 18 C11.20007488 15.94423268 9.41014591 13.88103782 7.625 11.8125 C6.86316406 10.9452832 6.86316406 10.9452832 6.0859375 10.06054688 C3.33206348 6.85373305 1.28384757 4.10676541 0 0 Z " fill="#FCA996" transform="translate(595,273)"/>
<path d="M0 0 C0.66 0 1.32 0 2 0 C1.4560915 5.47361889 -0.55393801 9.58317001 -3.0625 14.375 C-3.43955078 15.11105469 -3.81660156 15.84710937 -4.20507812 16.60546875 C-5.12944364 18.40739646 -6.06372614 20.20423099 -7 22 C-8 20 -8 20 -7.109375 17.20703125 C-6.66078125 16.08683594 -6.2121875 14.96664062 -5.75 13.8125 C-5.28722656 12.64976562 -4.82445312 11.48703125 -4.34765625 10.2890625 C-2.93500051 6.84136355 -1.50583976 3.40795315 0 0 Z " fill="#FCA58F" transform="translate(724,559)"/>
<path d="M0 0 C3.7721513 2.51476753 4.34172416 5.12292153 5.625 9.25 C5.8415625 9.90613281 6.058125 10.56226563 6.28125 11.23828125 C7.53531807 15.13208519 8.43405543 18.95035218 9 23 C8.34 23 7.68 23 7 23 C5.82569926 19.7318568 4.66188744 16.46007485 3.5 13.1875 C3.16613281 12.25873047 2.83226562 11.32996094 2.48828125 10.37304688 C2.17246094 9.48037109 1.85664063 8.58769531 1.53125 7.66796875 C1.09135742 6.43469849 1.09135742 6.43469849 0.64257812 5.17651367 C0 3 0 3 0 0 Z " fill="#FDA593" transform="translate(503,369)"/>
<path d="M0 0 C5.1239751 0.46047195 8.3275701 3.0789325 12.3125 6.0625 C12.95767578 6.53494141 13.60285156 7.00738281 14.26757812 7.49414062 C15.85070051 8.65509704 17.42613569 9.82652336 19 11 C18.67 11.99 18.34 12.98 18 14 C15.7465581 12.42138562 13.49727057 10.83735779 11.25 9.25 C10.61578125 8.8065625 9.9815625 8.363125 9.328125 7.90625 C5.92163923 5.49332258 2.84993043 3.08022784 0 0 Z " fill="#FCA592" transform="translate(449,720)"/>
<path d="M0 0 C-3.82338795 2.5489253 -7.60346015 3.47430386 -12 4.6875 C-13.22976563 5.04424805 -13.22976563 5.04424805 -14.484375 5.40820312 C-15.27328125 5.62798828 -16.0621875 5.84777344 -16.875 6.07421875 C-17.59429687 6.27619873 -18.31359375 6.47817871 -19.0546875 6.6862793 C-21 7 -21 7 -24 6 C-22.68 5.67 -21.36 5.34 -20 5 C-20 4.34 -20 3.68 -20 3 C-13.12418702 0.8408662 -7.21471629 -0.35482211 0 0 Z " fill="#FDAB99" transform="translate(364,381)"/>
<path d="M0 0 C3.4990717 1.28524778 6.38799884 2.80121844 9.4375 4.9375 C12.86673926 7.28291615 16.23142122 9.26065595 20 11 C20 11.33 20 11.66 20 12 C14.96357744 12.66319305 11.76863902 10.37631968 7.75 7.6875 C7.11320312 7.28337891 6.47640625 6.87925781 5.8203125 6.46289062 C1.13180272 3.39540816 1.13180272 3.39540816 0 0 Z " fill="#FBA48D" transform="translate(485,786)"/>
<path d="M0 0 C0.99 0.33 1.98 0.66 3 1 C1.43910974 2.41844009 -0.1237889 3.83467025 -1.6875 5.25 C-2.55761719 6.03890625 -3.42773438 6.8278125 -4.32421875 7.640625 C-6.82420863 9.84499564 -9.37945728 11.94133941 -12 14 C-12.66 13.67 -13.32 13.34 -14 13 C-10.11016202 7.85537557 -5.60465555 3.28512582 0 0 Z " fill="#FCA691" transform="translate(633,671)"/>
<path d="M0 0 C0.33 0 0.66 0 1 0 C1.62621031 6.88831341 -0.64193933 12.58902255 -3 19 C-3.66 19 -4.32 19 -5 19 C-5.33 19.66 -5.66 20.32 -6 21 C-4.78880323 13.65313537 -2.71328887 6.92810652 0 0 Z " fill="#FCA591" transform="translate(562,327)"/>
<path d="M0 0 C0 3 0 3 -1.875 5.1875 C-4 7 -4 7 -6 7 C-6.2475 7.5775 -6.495 8.155 -6.75 8.75 C-8.16683317 11.3002997 -9.87627537 13.01785701 -12 15 C-12.66 14.67 -13.32 14.34 -14 14 C-10.375 8.125 -10.375 8.125 -7 7 C-6.71125 6.38125 -6.4225 5.7625 -6.125 5.125 C-4.64041877 2.32079102 -2.76025753 1.45276712 0 0 Z " fill="#FCA58F" transform="translate(676,632)"/>
<path d="M0 0 C2.76094101 2.45600126 4.32469934 5.13051283 6.0625 8.375 C6.56910156 9.31085937 7.07570313 10.24671875 7.59765625 11.2109375 C8.88362219 13.76854107 9.98371552 16.32556717 11 19 C10.34 18.67 9.68 18.34 9 18 C9 17.34 9 16.68 9 16 C8.01 15.67 7.02 15.34 6 15 C4.39453125 12.63671875 4.39453125 12.63671875 2.8125 9.6875 C2.28269531 8.72199219 1.75289063 7.75648438 1.20703125 6.76171875 C0 4 0 4 0 0 Z " fill="#FCA48E" transform="translate(274,586)"/>
<path d="M0 0 C0.66 0.33 1.32 0.66 2 1 C-1.62844258 5.76233089 -5.66232689 10.1301632 -11 13 C-11.99 12.67 -12.98 12.34 -14 12 C-9.38 8.04 -4.76 4.08 0 0 Z " fill="#FCA38B" transform="translate(652,700)"/>
<path d="M0 0 C0.89203125 0.00902344 1.7840625 0.01804687 2.703125 0.02734375 C3.37859375 0.03894531 4.0540625 0.05054688 4.75 0.0625 C1.09769809 2.12684456 -2.78714686 3.17476102 -6.8125 4.25 C-7.48474609 4.44013672 -8.15699219 4.63027344 -8.84960938 4.82617188 C-12.18775296 5.72452035 -13.90057878 6.17897374 -17.25 5.0625 C-16.00264433 4.4115741 -14.75198168 3.76698331 -13.5 3.125 C-12.80390625 2.76535156 -12.1078125 2.40570313 -11.390625 2.03515625 C-7.51606486 0.27463531 -4.24202098 -0.05581607 0 0 Z " fill="#FDA390" transform="translate(599.25,380.9375)"/>
<path d="M0 0 C0.33 0 0.66 0 1 0 C0.68676801 7.36095182 -0.93914605 13.30883089 -4 20 C-4.33 20 -4.66 20 -5 20 C-4.52432875 12.74601342 -2.70533406 6.73187777 0 0 Z " fill="#FCA591" transform="translate(731,538)"/>
<path d="M0 0 C0.33 1.32 0.66 2.64 1 4 C1.66 4 2.32 4 3 4 C4.2982126 9.76081841 5.25706972 15.08739655 5 21 C2.27960591 18.27960591 2.15198872 15.93509713 1.375 12.1875 C1.11460937 10.96417969 0.85421875 9.74085938 0.5859375 8.48046875 C0.09297596 5.5522772 -0.12382257 2.95485688 0 0 Z " fill="#FCA18E" transform="translate(292,534)"/>
<path d="M0 0 C0.33 0 0.66 0 1 0 C0.55259069 6.15187805 -0.6478927 11.71754125 -4 17 C-4.99 17.33 -5.98 17.66 -7 18 C-5.06375702 11.79522136 -2.74390859 5.89174281 0 0 Z " fill="#FCA58C" transform="translate(756,570)"/>
<path d="M0 0 C-0.32432407 3.06382739 -0.98901487 3.98970965 -3.28515625 6.140625 C-4.65994141 7.18476563 -4.65994141 7.18476563 -6.0625 8.25 C-6.98160156 8.95640625 -7.90070312 9.6628125 -8.84765625 10.390625 C-9.91306641 11.18726563 -9.91306641 11.18726563 -11 12 C-11 9 -11 9 -9.1015625 6.73828125 C-8.28429687 5.93777344 -7.46703125 5.13726562 -6.625 4.3125 C-5.81289063 3.50425781 -5.00078125 2.69601562 -4.1640625 1.86328125 C-2 0 -2 0 0 0 Z " fill="#FAA38F" transform="translate(538,449)"/>
<path d="M0 0 C4.00357579 2.66905052 4.82139775 5.44110103 6 10 C6.2165281 12.40436406 6.15126063 14.57982999 6 17 C3.51340379 14.51340379 2.9656889 12.39516054 1.875 9.0625 C1.52179688 8.00160156 1.16859375 6.94070313 0.8046875 5.84765625 C0 3 0 3 0 0 Z " fill="#FC9F89" transform="translate(497,351)"/>
<path d="M0 0 C0.66 0 1.32 0 2 0 C3.03033882 2.12040742 4.04902854 4.24647908 5.0625 6.375 C5.91521484 8.15003906 5.91521484 8.15003906 6.78515625 9.9609375 C7.18605469 10.96382813 7.58695313 11.96671875 8 13 C7.67 13.66 7.34 14.32 7 15 C4.69145075 12.87666387 3.21587424 10.86387158 1.8125 8.0625 C1.29623047 7.05896484 1.29623047 7.05896484 0.76953125 6.03515625 C0 4 0 4 0 0 Z " fill="#FCA592" transform="translate(517,272)"/>
<path d="M0 0 C1.66285211 3.32570422 -0.01920148 6.68360945 -0.9375 10.125 C-1.13279297 10.87910156 -1.32808594 11.63320313 -1.52929688 12.41015625 C-2.01323358 14.27508306 -2.50580769 16.13776459 -3 18 C-3.33 18 -3.66 18 -4 18 C-4.4033037 11.54714085 -3.64214341 6.91840123 -1 1 C-0.67 0.67 -0.34 0.34 0 0 Z " fill="#FCA28B" transform="translate(264,468)"/>
<path d="M0 0 C0.33 0.99 0.66 1.98 1 3 C0.43410156 3.55429687 -0.13179687 4.10859375 -0.71484375 4.6796875 C-1.44832031 5.40414063 -2.18179688 6.12859375 -2.9375 6.875 C-3.66839844 7.59429687 -4.39929688 8.31359375 -5.15234375 9.0546875 C-7.05667999 10.87027192 -7.05667999 10.87027192 -8 13 C-8.99 13 -9.98 13 -11 13 C-11 12.34 -11 11.68 -11 11 C-10.34 11 -9.68 11 -9 11 C-8.61714844 10.12601562 -8.61714844 10.12601562 -8.2265625 9.234375 C-6.88258913 6.78611777 -5.38189704 5.18256752 -3.375 3.25 C-2.74335937 2.63640625 -2.11171875 2.0228125 -1.4609375 1.390625 C-0.73777344 0.70226562 -0.73777344 0.70226562 0 0 Z " fill="#FCA38C" transform="translate(644,313)"/>
<path d="M0 0 C-1.43714007 3.35829104 -3.20977399 5.39970698 -5.9375 7.8125 C-6.62714844 8.43769531 -7.31679688 9.06289063 -8.02734375 9.70703125 C-9.00380859 10.34705078 -9.00380859 10.34705078 -10 11 C-10.99 10.67 -11.98 10.34 -13 10 C-11.21371169 8.32722165 -9.4214925 6.66175557 -7.625 5 C-6.86316406 4.28457031 -6.86316406 4.28457031 -6.0859375 3.5546875 C-2.2265625 0 -2.2265625 0 0 0 Z " fill="#FBA28C" transform="translate(669,687)"/>
<path d="M0 0 C1.96482034 2.94723051 2.7561217 5.11977826 3.6875 8.5 C3.95949219 9.4590625 4.23148437 10.418125 4.51171875 11.40625 C5 14 5 14 4 17 C4 16.34 4 15.68 4 15 C3.34 15 2.68 15 2 15 C-0.10428384 9.87080814 -0.21755666 5.4389165 0 0 Z " fill="#FCA28A" transform="translate(261,548)"/>
<path d="M0 0 C3.14318972 1.57159486 3.46088309 4.22861392 4.6875 7.4375 C5.14511719 8.61183594 5.60273438 9.78617188 6.07421875 10.99609375 C7 14 7 14 6 16 C3.29373109 14.64686554 2.7774755 12.76511712 1.6640625 10.0546875 C0.58981309 6.73083344 0.30473772 3.47401 0 0 Z " fill="#FBA28A" transform="translate(267,569)"/>
<path d="M0 0 C2.5938187 2.27323437 3.68311469 4.23402458 4.75 7.5 C5.01296875 8.2734375 5.2759375 9.046875 5.546875 9.84375 C6 12 6 12 5 15 C5 14.34 5 13.68 5 13 C4.34 13 3.68 13 3 13 C2.49242138 11.58603098 1.99425075 10.16868271 1.5 8.75 C1.08234375 7.56664062 1.08234375 7.56664062 0.65625 6.359375 C0 4 0 4 0 0 Z " fill="#FCA590" transform="translate(724,470)"/>
<path d="M0 0 C3.99582132 2.66388088 4.75593479 5.48162428 6 10 C6.1875 13 6.1875 13 6 15 C2.35219334 10.8310781 0 5.55196264 0 0 Z " fill="#FDA28C" transform="translate(297,556)"/>
<path d="M0 0 C0.33 0.99 0.66 1.98 1 3 C1.66 3 2.32 3 3 3 C4.04976964 6.14930893 4.10131595 8.38814456 4.0625 11.6875 C4.05347656 12.68136719 4.04445313 13.67523438 4.03515625 14.69921875 C4.02355469 15.45847656 4.01195312 16.21773438 4 17 C2.48300584 14.19547298 1.54691437 11.6142698 0.875 8.5 C0.70742188 7.7471875 0.53984375 6.994375 0.3671875 6.21875 C0 4 0 4 0 0 Z " fill="#FCA189" transform="translate(761,471)"/>
<path d="M0 0 C1.98270912 0.95098266 3.96108379 1.91100703 5.9375 2.875 C7.03964844 3.40867187 8.14179687 3.94234375 9.27734375 4.4921875 C12 6 12 6 13 8 C8.14036821 7.39254603 4.2594482 5.27241033 0 3 C0 2.01 0 1.02 0 0 Z " fill="#FDA693" transform="translate(677,421)"/>
<path d="M0 0 C1.25955231 3.77865693 0.48087189 5.03411786 -0.9375 8.6875 C-1.31777344 9.68136719 -1.69804688 10.67523438 -2.08984375 11.69921875 C-2.39019531 12.45847656 -2.69054687 13.21773438 -3 14 C-3.33 14 -3.66 14 -4 14 C-3.85851011 12.3954444 -3.71164314 10.79136233 -3.5625 9.1875 C-3.48128906 8.29417969 -3.40007813 7.40085937 -3.31640625 6.48046875 C-3 4 -3 4 -2 1 C-1.34 0.67 -0.68 0.34 0 0 Z " fill="#FCA490" transform="translate(523,361)"/>
<path d="M0 0 C0.33 0 0.66 0 1 0 C0.88490339 1.41750563 0.75746342 2.83401169 0.625 4.25 C0.55539062 5.03890625 0.48578125 5.8278125 0.4140625 6.640625 C-0.01507113 9.085877 -0.78600638 10.84836903 -2 13 C-2.66 13 -3.32 13 -4 13 C-3.71517632 11.58194169 -3.42181856 10.16559621 -3.125 8.75 C-2.96257813 7.96109375 -2.80015625 7.1721875 -2.6328125 6.359375 C-2.00849925 4.03168856 -1.15161458 2.10968048 0 0 Z " fill="#FCA28C" transform="translate(555,349)"/>
<path d="M0 0 C4.97306516 0.49730652 8.63799813 1.55302334 13 4 C13 4.66 13 5.32 13 6 C8.31479085 4.78184562 4.29456388 3.30440013 0 1 C0 0.67 0 0.34 0 0 Z " fill="#FCA592" transform="translate(682,387)"/>
<path d="M0 0 C3.68285005 2.45523336 3.94619813 3.7847925 5 8 C5.125 11.375 5.125 11.375 5 14 C2.96470413 11.96470413 2.3615728 10.76582618 1.375 8.125 C1.11460937 7.44695312 0.85421875 6.76890625 0.5859375 6.0703125 C0 4 0 4 0 0 Z " fill="#FDA28E" transform="translate(492,336)"/>
<path d="M0 0 C0.66 0.33 1.32 0.66 2 1 C0.73657512 2.48549956 -0.5360103 3.96321189 -1.8125 5.4375 C-2.52019531 6.26121094 -3.22789062 7.08492188 -3.95703125 7.93359375 C-6 10 -6 10 -9 11 C-7.59155282 7.78475695 -5.89655214 5.67816132 -3.375 3.25 C-2.74335938 2.63640625 -2.11171875 2.0228125 -1.4609375 1.390625 C-0.73777344 0.70226562 -0.73777344 0.70226562 0 0 Z " fill="#FD9F89" transform="translate(324,434)"/>
<path d="M0 0 C3.45854519 3.45854519 4 7.21904213 4 12 C4.66 12.33 5.32 12.66 6 13 C4.125 12.8125 4.125 12.8125 2 12 C-0.30238787 8.08594062 -0.17461992 4.45280788 0 0 Z " fill="#FBA594" transform="translate(472,360)"/>
<path d="M0 0 C1 2 1 2 0.22265625 4.8203125 C-0.16019531 5.91085937 -0.54304687 7.00140625 -0.9375 8.125 C-1.31777344 9.22070312 -1.69804688 10.31640625 -2.08984375 11.4453125 C-2.39019531 12.28835938 -2.69054687 13.13140625 -3 14 C-3.33 14 -3.66 14 -4 14 C-4.31549088 8.7418187 -3.70016294 5.53627373 -1 1 C-0.67 0.67 -0.34 0.34 0 0 Z " fill="#FCA28D" transform="translate(528,346)"/>
<path d="M0 0 C0.33 0.99 0.66 1.98 1 3 C-3.455 6.96 -3.455 6.96 -8 11 C-8.66 10.67 -9.32 10.34 -10 10 C-6.7 6.7 -3.4 3.4 0 0 Z " fill="#FDA08A" transform="translate(613,346)"/>
<path d="M0 0 C1 4 1 4 0.00390625 5.921875 C-0.47175781 6.52515625 -0.94742188 7.1284375 -1.4375 7.75 C-1.91058594 8.36359375 -2.38367188 8.9771875 -2.87109375 9.609375 C-3.24363281 10.06828125 -3.61617187 10.5271875 -4 11 C-4.99 10.67 -5.98 10.34 -7 10 C-3.535 5.05 -3.535 5.05 0 0 Z " fill="#FCA28A" transform="translate(732,615)"/>
<path d="M0 0 C0.66 0.33 1.32 0.66 2 1 C-0.66666667 3.66666667 -3.33333333 6.33333333 -6 9 C-6.99 8.67 -7.98 8.34 -9 8 C-6.03 5.36 -3.06 2.72 0 0 Z " fill="#FBA28B" transform="translate(554,433)"/>
<path d="M0 0 C7.15618661 0.34077079 7.15618661 0.34077079 10 2.5625 C10.33 3.036875 10.66 3.51125 11 4 C6.62065881 3.48041715 2.31196609 2.94324258 -2 2 C-1.34 1.34 -0.68 0.68 0 0 Z " fill="#FCA794" transform="translate(661,380)"/>
<path d="M0 0 C7.87006961 3.11832947 7.87006961 3.11832947 10 6 C10 6.66 10 7.32 10 8 C6.41726669 6.34643078 3.19026533 4.32019297 0 2 C0 1.34 0 0.68 0 0 Z " fill="#FCA48F" transform="translate(438,711)"/>
<path d="M0 0 C0.33 0.99 0.66 1.98 1 3 C-0.25942386 4.19959375 -1.53295286 5.38439443 -2.8125 6.5625 C-3.87404297 7.55443359 -3.87404297 7.55443359 -4.95703125 8.56640625 C-5.63121094 9.03949219 -6.30539062 9.51257813 -7 10 C-7.99 9.67 -8.98 9.34 -10 9 C-6.7 6.03 -3.4 3.06 0 0 Z " fill="#FCA187" transform="translate(681,675)"/>
<path d="M0 0 C2.87511449 2.87511449 2.83614951 6.10482694 3 10 C2.5625 13 2.5625 13 2 15 C1.67 15 1.34 15 1 15 C-0.03590199 9.94997778 -0.10251672 5.12583611 0 0 Z " fill="#FCAA99" transform="translate(730,486)"/>
<path d="M0 0 C1.21236328 0.02707031 1.21236328 0.02707031 2.44921875 0.0546875 C3.37154297 0.08949219 3.37154297 0.08949219 4.3125 0.125 C-0.34035818 3.22690545 -5.10282676 4.46346504 -10.6875 4.125 C-4.3125 -0.125 -4.3125 -0.125 0 0 Z " fill="#FDA390" transform="translate(359.6875,380.875)"/>
<path d="M0 0 C0.33 0.99 0.66 1.98 1 3 C-0.21484375 4.82421875 -0.21484375 4.82421875 -1.9375 6.6875 C-2.50339844 7.31011719 -3.06929687 7.93273437 -3.65234375 8.57421875 C-4.09707031 9.04472656 -4.54179688 9.51523437 -5 10 C-5.99 9.67 -6.98 9.34 -8 9 C-5.36 6.03 -2.72 3.06 0 0 Z " fill="#FCA18C" transform="translate(598,362)"/>
<path d="M0 0 C1 3 1 3 0.00390625 5.26171875 C-0.47175781 6.06222656 -0.94742187 6.86273438 -1.4375 7.6875 C-1.91058594 8.49574219 -2.38367188 9.30398438 -2.87109375 10.13671875 C-3.24363281 10.75160156 -3.61617188 11.36648438 -4 12 C-4.65234375 10.265625 -4.65234375 10.265625 -5 8 C-4.00390625 5.859375 -4.00390625 5.859375 -2.5625 3.75 C-2.08941406 3.04359375 -1.61632812 2.3371875 -1.12890625 1.609375 C-0.75636719 1.07828125 -0.38382812 0.5471875 0 0 Z " fill="#FCA691" transform="translate(475,268)"/>
<path d="M0 0 C0.33 0 0.66 0 1 0 C0.67 3.3 0.34 6.6 0 10 C-0.66 10 -1.32 10 -2 10 C-2.33 10.66 -2.66 11.32 -3 12 C-2.49202991 7.6822542 -1.80317221 3.96697886 0 0 Z " fill="#FCA28B" transform="translate(760,557)"/>
<path d="M0 0 C2.53910197 0.38520564 3.72751123 0.70097943 5.484375 2.62890625 C5.90203125 3.26699219 6.3196875 3.90507812 6.75 4.5625 C7.17796875 5.20316406 7.6059375 5.84382813 8.046875 6.50390625 C8.36140625 6.99761719 8.6759375 7.49132812 9 8 C7.68 7.67 6.36 7.34 5 7 C5 6.34 5 5.68 5 5 C4.34 5 3.68 5 3 5 C1.375 3.625 1.375 3.625 0 2 C0 1.34 0 0.68 0 0 Z " fill="#FCA592" transform="translate(586,264)"/>
<path d="M0 0 C0.33 0 0.66 0 1 0 C1.08121924 1.60332791 1.13929134 3.20784026 1.1875 4.8125 C1.23970703 6.15248047 1.23970703 6.15248047 1.29296875 7.51953125 C0.95081002 10.41647515 0.24606427 11.22555028 -2 13 C-1.85851011 11.3954444 -1.71164314 9.79136233 -1.5625 8.1875 C-1.48128906 7.29417969 -1.40007813 6.40085937 -1.31640625 5.48046875 C-1 3 -1 3 0 0 Z " fill="#FD9F83" transform="translate(763,543)"/>
<path d="M0 0 C0.66 0 1.32 0 2 0 C5.22265625 5.17578125 5.22265625 5.17578125 6 7 C5.67 7.99 5.34 8.98 5 10 C4.15801693 8.90241493 3.32669329 7.79664683 2.5 6.6875 C2.0359375 6.07261719 1.571875 5.45773437 1.09375 4.82421875 C0 3 0 3 0 0 Z " fill="#FDA793" transform="translate(718,459)"/>
<path d="M0 0 C-0.66 0 -1.32 0 -2 0 C-2 0.66 -2 1.32 -2 2 C-5.3 2.33 -8.6 2.66 -12 3 C-8.61613364 -0.38386636 -4.56431325 -1.75550509 0 0 Z " fill="#FDA38F" transform="translate(592,417)"/>
<path d="M0 0 C1.43655854 -0.08131463 2.8744483 -0.13933559 4.3125 -0.1875 C5.51326172 -0.23970703 5.51326172 -0.23970703 6.73828125 -0.29296875 C9.47851584 0.06198392 10.29171079 0.89366282 12 3 C10.37419034 2.88601335 8.74932843 2.75844341 7.125 2.625 C6.22007812 2.55539062 5.31515625 2.48578125 4.3828125 2.4140625 C2 2 2 2 0 0 Z " fill="#FCA491" transform="translate(424,382)"/>
<path d="M0 0 C0.33 0.99 0.66 1.98 1 3 C-1.25 5.0625 -1.25 5.0625 -4 7 C-5.32 6.67 -6.64 6.34 -8 6 C-5.36 4.02 -2.72 2.04 0 0 Z " fill="#FBA28B" transform="translate(590,748)"/>
<path d="M0 0 C0.66 0.33 1.32 0.66 2 1 C0.45294267 4.09411467 -1.88071772 4.71558965 -5 6 C-7.19921875 5.58203125 -7.19921875 5.58203125 -9 5 C-7.54735962 4.1361871 -6.0876837 3.28419546 -4.625 2.4375 C-3.40683594 1.72400391 -3.40683594 1.72400391 -2.1640625 0.99609375 C-1.44992187 0.66738281 -0.73578125 0.33867187 0 0 Z " fill="#FDA48F" transform="translate(348,419)"/>
<path d="M0 0 C-3.83325617 2.70582788 -6.32538149 3.32613618 -11 3 C-7.18178484 -0.02823961 -4.81391924 -1.49397494 0 0 Z " fill="#FDA490" transform="translate(362,416)"/>
<path d="M0 0 C0.95465783 2.16967689 1.14401212 3.56328793 0.3984375 5.82421875 C-0.35870385 7.5684743 -1.17609198 9.28627131 -2 11 C-2.33 11 -2.66 11 -3 11 C-2.67 8.03 -2.34 5.06 -2 2 C-1.34 2 -0.68 2 0 2 C0 1.34 0 0.68 0 0 Z " fill="#FCA28C" transform="translate(517,378)"/>
<path d="M0 0 C1.17539996 0.92652701 2.34010577 1.86663387 3.5 2.8125 C4.1496875 3.33457031 4.799375 3.85664063 5.46875 4.39453125 C7 6 7 6 7 9 C5.82460004 8.07347299 4.65989423 7.13336613 3.5 6.1875 C2.52546875 5.40439453 2.52546875 5.40439453 1.53125 4.60546875 C0 3 0 3 0 0 Z " fill="#FBA28E" transform="translate(420,359)"/>
<path d="M0 0 C3.08089673 2.77280706 4.68775452 5.06326356 6 9 C2.83884224 7.63016497 2.0072908 7.0109362 0 4 C0 2.68 0 1.36 0 0 Z " fill="#FBA18B" transform="translate(286,607)"/>
<path d="M0 0 C0.66 0.33 1.32 0.66 2 1 C1 4 1 4 -2 6 C-4.33199388 6.07905064 -6.66832622 6.08798769 -9 6 C-6.94709452 4.97354726 -4.90024097 3.95439587 -2.8125 3 C-0.82798477 2.12855431 -0.82798477 2.12855431 0 0 Z " fill="#F89D89" transform="translate(519,466)"/>
<path d="M0 0 C3 2 3 2 3.51171875 4.1640625 C3.56972656 4.97617187 3.62773437 5.78828125 3.6875 6.625 C3.75324219 7.44226563 3.81898438 8.25953125 3.88671875 9.1015625 C3.92410156 9.72804688 3.96148437 10.35453125 4 11 C1.6870518 8.6870518 1.50419025 7.52095125 0.875 4.375 C0.70742188 3.55773437 0.53984375 2.74046875 0.3671875 1.8984375 C0.24601562 1.27195312 0.12484375 0.64546875 0 0 Z " fill="#FC9F87" transform="translate(503,369)"/>
<path d="M0 0 C1.13643966 3.40931897 0.86747764 4.00335456 -0.4375 7.1875 C-0.86869141 8.26064453 -0.86869141 8.26064453 -1.30859375 9.35546875 C-1.53675781 9.89816406 -1.76492188 10.44085938 -2 11 C-2.33 11 -2.66 11 -3 11 C-2.88590407 9.54077307 -2.75834456 8.08259402 -2.625 6.625 C-2.55539062 5.81289063 -2.48578125 5.00078125 -2.4140625 4.1640625 C-2 2 -2 2 0 0 Z " fill="#FCA18C" transform="translate(532,334)"/>
<path d="M0 0 C1 4 1 4 -0.4375 6.75 C-1.2109375 7.86375 -1.2109375 7.86375 -2 9 C-2.99 8.67 -3.98 8.34 -5 8 C-3.35 5.36 -1.7 2.72 0 0 Z " fill="#FDA48E" transform="translate(507,266)"/>
<path d="M0 0 C4.55737263 0.43820891 7.57653445 0.85041169 11 4 C5.25 4.125 5.25 4.125 3 3 C3 2.34 3 1.68 3 1 C2.01 0.67 1.02 0.34 0 0 Z " fill="#FDA28D" transform="translate(433,417)"/>
<path d="M0 0 C0.33 0.99 0.66 1.98 1 3 C-0.32 4.32 -1.64 5.64 -3 7 C-3.99 6.67 -4.98 6.34 -6 6 C-4.02 4.02 -2.04 2.04 0 0 Z " fill="#FBA68D" transform="translate(692,664)"/>
<path d="M0 0 C-1.45255699 3.82946843 -3.42895561 5.12050295 -7 7 C-3.86206897 0 -3.86206897 0 0 0 Z " fill="#FDA08B" transform="translate(626,334)"/>
<path d="M0 0 C2.8125 -0.3125 2.8125 -0.3125 6 0 C7.9375 2.375 7.9375 2.375 9 5 C8.67 5.66 8.34 6.32 8 7 C6.5 5.6875 6.5 5.6875 5 4 C5 3.01 5 2.02 5 1 C3.35 1 1.7 1 0 1 C0 0.67 0 0.34 0 0 Z " fill="#FDA18D" transform="translate(508,264)"/>
<path d="M0 0 C0.99 0.33 1.98 0.66 3 1 C0.75 3.0625 0.75 3.0625 -2 5 C-4.3125 4.75 -4.3125 4.75 -6 4 C-3.1875 1.9375 -3.1875 1.9375 0 0 Z " fill="#FDA08A" transform="translate(566,425)"/>
<path d="M0 0 C7.75 0.75 7.75 0.75 10 3 C3.47692308 3.36923077 3.47692308 3.36923077 1.0625 1.5 C0.5365625 0.7575 0.5365625 0.7575 0 0 Z " fill="#FCA08C" transform="translate(422,414)"/>
<path d="M0 0 C-1 2 -1 2 -3.375 3.1875 C-6 4 -6 4 -9 3 C-8.34 3 -7.68 3 -7 3 C-7 2.34 -7 1.68 -7 1 C-4.53721199 -0.231394 -2.7204945 -0.07159196 0 0 Z " fill="#FDA48F" transform="translate(337,389)"/>
<path d="M0 0 C0.66 0.66 1.32 1.32 2 2 C1.34 2 0.68 2 0 2 C0 1.34 0 0.68 0 0 Z " fill="#FAB6AA" transform="translate(523,291)"/>
<path d="M0 0 C2 1 2 1 2 1 Z " fill="#F3AFA0" transform="translate(497,797)"/>
<path d="M0 0 C2 1 2 1 2 1 Z " fill="#F6B1A3" transform="translate(425,749)"/>
<path d="" fill="#F5B09F" transform="translate(0,0)"/>
<path d="" fill="#F2AFA2" transform="translate(0,0)"/>
<path d="" fill="#F6B2A5" transform="translate(0,0)"/>
<path d="" fill="#FAB2A7" transform="translate(0,0)"/>
<path d="" fill="#FBB3A6" transform="translate(0,0)"/>
<path d="M0 0 C2 1 2 1 2 1 Z " fill="#F6B4A9" transform="translate(566,327)"/>
<path d="M0 0 C2 1 2 1 2 1 Z " fill="#FBB3A8" transform="translate(528,326)"/>
<path d="M0 0 C2 1 2 1 2 1 Z " fill="#F9B6A9" transform="translate(456,326)"/>
<path d="" fill="#F4AFA0" transform="translate(0,0)"/>
<path d="" fill="#F5AE9E" transform="translate(0,0)"/>
<path d="" fill="#F6B0A1" transform="translate(0,0)"/>
<path d="" fill="#F6B1A0" transform="translate(0,0)"/>
<path d="" fill="#F5B0A0" transform="translate(0,0)"/>
<path d="" fill="#F5B0A2" transform="translate(0,0)"/>
<path d="" fill="#F6B3A4" transform="translate(0,0)"/>
<path d="" fill="#F5AFA2" transform="translate(0,0)"/>
<path d="" fill="#F6B1A1" transform="translate(0,0)"/>
<path d="" fill="#F6B3A5" transform="translate(0,0)"/>
<path d="" fill="#F7AFA0" transform="translate(0,0)"/>
<path d="" fill="#F7AEA1" transform="translate(0,0)"/>
<path d="" fill="#F4B0A0" transform="translate(0,0)"/>
<path d="" fill="#F9B0A1" transform="translate(0,0)"/>
<path d="" fill="#F6B0A1" transform="translate(0,0)"/>
<path d="" fill="#F5B2A4" transform="translate(0,0)"/>
<path d="" fill="#F6B3A1" transform="translate(0,0)"/>
<path d="" fill="#F6B1A3" transform="translate(0,0)"/>
<path d="" fill="#F8AD9F" transform="translate(0,0)"/>
<path d="" fill="#F7B3A3" transform="translate(0,0)"/>
<path d="" fill="#F6B2A4" transform="translate(0,0)"/>
<path d="" fill="#F8B3A4" transform="translate(0,0)"/>
<path d="" fill="#F6B1A2" transform="translate(0,0)"/>
<path d="" fill="#F3AD9F" transform="translate(0,0)"/>
<path d="" fill="#F5B2A1" transform="translate(0,0)"/>
<path d="" fill="#F7B1A5" transform="translate(0,0)"/>
<path d="" fill="#F7B2A3" transform="translate(0,0)"/>
<path d="" fill="#F5B3A5" transform="translate(0,0)"/>
<path d="" fill="#F6B1A3" transform="translate(0,0)"/>
<path d="" fill="#F5B3A4" transform="translate(0,0)"/>
<path d="" fill="#F5B3A8" transform="translate(0,0)"/>
<path d="" fill="#F8B4A8" transform="translate(0,0)"/>
<path d="" fill="#F8B3A7" transform="translate(0,0)"/>
<path d="" fill="#FAB4A6" transform="translate(0,0)"/>
<path d="" fill="#F7B29F" transform="translate(0,0)"/>
<path d="" fill="#F8B2A6" transform="translate(0,0)"/>
<path d="" fill="#F6B4A5" transform="translate(0,0)"/>
<path d="" fill="#F7B3A8" transform="translate(0,0)"/>
<path d="" fill="#F4B2A1" transform="translate(0,0)"/>
<path d="" fill="#F6B1A4" transform="translate(0,0)"/>
<path d="" fill="#F6B1A6" transform="translate(0,0)"/>
<path d="" fill="#F8B3A8" transform="translate(0,0)"/>
<path d="" fill="#F6B2A7" transform="translate(0,0)"/>
<path d="" fill="#F8B5A8" transform="translate(0,0)"/>
<path d="" fill="#F8B6A8" transform="translate(0,0)"/>
<path d="" fill="#F9B6AA" transform="translate(0,0)"/>
<path d="" fill="#FAB6AA" transform="translate(0,0)"/>
<path d="" fill="#F9B5A9" transform="translate(0,0)"/>
<path d="" fill="#F8B5A9" transform="translate(0,0)"/>
<path d="" fill="#F9B7A9" transform="translate(0,0)"/>
<path d="" fill="#FBB3A8" transform="translate(0,0)"/>
<path d="" fill="#FCB8AA" transform="translate(0,0)"/>
<path d="" fill="#F8B8AB" transform="translate(0,0)"/>
<path d="" fill="#FBB4A9" transform="translate(0,0)"/>
<path d="" fill="#FAB1A6" transform="translate(0,0)"/>
<path d="" fill="#FAB3A7" transform="translate(0,0)"/>
<path d="" fill="#FBB3A7" transform="translate(0,0)"/>
<path d="" fill="#FBB2A6" transform="translate(0,0)"/>
<path d="" fill="#FBB3A7" transform="translate(0,0)"/>
<path d="" fill="#FBB4A7" transform="translate(0,0)"/>
<path d="" fill="#FDB6A9" transform="translate(0,0)"/>
<path d="" fill="#FBB4A6" transform="translate(0,0)"/>
<path d="" fill="#FAB4A7" transform="translate(0,0)"/>
<path d="" fill="#FAB4A9" transform="translate(0,0)"/>
<path d="" fill="#FAB4A9" transform="translate(0,0)"/>
<path d="" fill="#F0AD9D" transform="translate(0,0)"/>
<path d="" fill="#FBB5A9" transform="translate(0,0)"/>
<path d="" fill="#FCB5A8" transform="translate(0,0)"/>
<path d="" fill="#F6B3A8" transform="translate(0,0)"/>
<path d="" fill="#F6B3A4" transform="translate(0,0)"/>
<path d="" fill="#FAB6AC" transform="translate(0,0)"/>
<path d="" fill="#FBB4A9" transform="translate(0,0)"/>
<path d="" fill="#F9B5A6" transform="translate(0,0)"/>
<path d="" fill="#F8B1A7" transform="translate(0,0)"/>
<path d="" fill="#F9B2A8" transform="translate(0,0)"/>
<path d="" fill="#FAB4A8" transform="translate(0,0)"/>
<path d="" fill="#F3B19D" transform="translate(0,0)"/>
<path d="" fill="#F6B0A0" transform="translate(0,0)"/>
</svg>
